<svg xmlns="http://www.w3.org/2000/svg" fill="#88df95" viewBox="0 0 90 90"><path d="M88.7 38.6c2.3-4.2 1.4-7.5-2.7-10-4-2.2-6.4-6.4-6.3-11 0-4.8-2.6-7.2-7.4-7.3-4.8 0-8.5-2.2-11-6.3-2.4-4.2-5.8-5-10-2.7a12.2 12.2 0 0 1-12.7 0C34.4-1 31.1-.2 28.6 4c-2.2 4-6.4 6.4-11 6.3-4.8 0-7.3 2.5-7.3 7.3 0 5-2.2 8.5-6.4 11-4 2.5-5 5.8-2.7 10 2.4 4.3 2.4 8.5 0 12.7C-1 55.5-.2 59 4 61.3c4.2 2.5 6.3 6.2 6.4 11 0 5 2.5 7.3 7.3 7.4 5 0 8.5 2.2 11 6.3 2.5 4.2 5.8 5 10 2.7 4.3-2.4 8.5-2.4 12.7 0 4.2 2.4 7.6 1.5 10-2.7 2.5-4 6.2-6.3 11-6.3s7.3-2.5 7.4-7.4a12 12 0 0 1 6.3-11c4.1-2.4 5-5.8 2.7-10a12.2 12.2 0 0 1 0-12.6zM21 33.3a8.4 8.4 0 1 1 16.8 0c0 4.7-3.8 8.5-8.4 8.5a8.4 8.4 0 0 1-8.5-8.5zm10.3 37.2c-.4.7-1.2 1.2-2 1.2a3 3 0 0 1-1.6-.5 2.6 2.6 0 0 1-.7-3.6l31.6-48a2.6 2.6 0 1 1 4.3 2.8l-31.6 48zm29.1-5.4a8.5 8.5 0 1 1 0-17 8.5 8.5 0 0 1 0 17z"/></svg>