<svg xmlns="http://www.w3.org/2000/svg" fill="#53bbad" viewBox="0 0 573 90"><path d="m45 0c-4.9 0-9.5 2.2992-12.5 6.1992-1.4 1.8-3.9004 2.8-6.4004 2.5-0.6-0.1-1.1988-0.099609-1.7988-0.099609-4.2 0-8.0996 1.5996-11.1 4.5996-3.4 3.4-5.1 8.1004-4.5 12.9 0.3 2.5-0.7 5.0004-2.5 6.4004-4 3-6.2012 7.6-6.2012 12.5s2.3012 9.5 6.2012 12.5c1.8 1.4 2.8 3.9004 2.5 6.4004-0.6 4.8 1.1 9.5004 4.5 12.9 3 3 6.8996 4.5996 11.1 4.5996 0.6 0 1.1988 3.9e-4 1.7988-0.09961 2.6-0.3 5.0004 0.7 6.4004 2.5 3 4 7.6 6.1992 12.5 6.1992 0.30625 0 0.61243-0.0083 0.91602-0.02539 3.3395-0.18799 6.498-1.4035 9.0547-3.5176 0.92969-0.76875 1.7793-1.6562 2.5293-2.6562 1.4-1.8 3.9004-2.8 6.4004-2.5 0.6 0.1 1.2008 0.09961 1.8008 0.09961 4.2 0 8.0996-1.5996 11.1-4.5996 3.4-3.4 5.1-8.1004 4.5-12.9-0.3-2.5 0.7-5.0004 2.5-6.4004 4-3 6.1992-7.6 6.1992-12.5s-2.2992-9.5-6.1992-12.5c-1.8-1.4-2.8-3.9004-2.5-6.4004 0.6-4.8-1.1-9.5004-4.5-12.9-3-3-6.8996-4.5996-11.1-4.5996-0.6 0-1.2008-3.906e-4 -1.8008 0.099609-2.6 0.3-5.0004-0.7-6.4004-2.5-3-4-7.6-6.1992-12.5-6.1992zm-0.09961 3.4004c3.9 0 7.5004 1.8004 9.9004 4.9004 0.225 0.3 0.46797 0.58359 0.72852 0.85156 1.8238 1.8758 4.4715 2.9473 7.2715 2.9473 0.5 0 0.89883-0.09961 1.2988-0.09961 3.8-0.4 7.6008 0.89961 10.301 3.5996s3.9996 6.5008 3.5996 10.301c-0.5 3.6 1.0012 7.1988 3.7012 9.2988 3.1 2.4 4.8984 6.0004 4.8984 9.9004s-1.7984 7.5004-4.8984 9.9004c-2.7 2.1-4.1012 5.7008-3.7012 9.3008 0.15 1.425 0.06035 2.8498-0.25195 4.2168-0.52051 2.2783-1.6602 4.3945-3.3477 6.082-1.725 1.8-3.9555 2.9809-6.3555 3.459-0.8 0.15938-1.6203 0.24219-2.4453 0.24219-0.5 0-1-0.0016-1.5-0.10156-0.4-0.1-0.89883-0.09961-1.2988-0.09961s-0.79629 0.02148-1.1855 0.06445c-2.7248 0.30078-5.152 1.6363-6.8145 3.7363-2.1 2.7125-5.1186 4.4295-8.4531 4.8164-0.47637 0.05527-0.95977 0.08398-1.4473 0.08398-3.9 0-7.5004-1.8004-9.9004-4.9004-1.8-2.4-4.8-3.8008-8-3.8008-0.4 0-0.79883-3.9e-4 -1.2988 0.09961s-1 0.10156-1.5 0.10156c-3.3 0-6.4008-1.3012-8.8008-3.7012-2.7-2.7-3.9996-6.4988-3.5996-10.299 0.5-3.6-1.0012-7.2008-3.7012-9.3008-3.1-2.3-4.8984-6.0004-4.8984-9.9004 1e-7 -3.9 1.7984-7.5004 4.8984-9.9004 2.7-2.1 4.1012-5.6988 3.7012-9.2988-0.4-3.8 0.89961-7.6008 3.5996-10.301 1.725-1.8 3.9555-2.9809 6.3555-3.459 0.4-0.07969 0.80508-0.13945 1.2129-0.17969 0.40781-0.04024 0.81992-0.06055 1.2324-0.06055 0.5 0 1-3.91e-4 1.5 0.09961 0.4 0.1 0.89883 0.09961 1.2988 0.09961 3.2 0 6.1-1.3988 8-3.7988 2.4-3.1 6.0004-4.9004 9.9004-4.9004zm394 17.098-6.3613 0.68945 0.42969 2.1484h3.0078v38.682l-3.9102 1.2891 0.42969 2.1504h12.637l0.38672-2.1504-3.9121-1.2891v-40.83zm-380.44 0.20508c-0.52344 0.03125-1.0078 0.29688-1.2578 0.79688l-25.701 45.5c-0.4 0.8-0.20039 1.7992 0.59961 2.1992 0.3 0.1 0.50078 0.20117 0.80078 0.20117 0.6 0 1.1004-0.30078 1.4004-0.80078l25.699-45.5c0.4-0.8 0.20039-1.7992-0.59961-2.1992-0.3-0.15-0.62734-0.21602-0.94141-0.19727zm52.33 2.6328-0.47265 2.5371 5.2852 1.9766 14.098 38.639 3.1387-1.0312 13.322-37.607 5.2441-1.9766-0.47266-2.5352h-12.207l-0.47266 2.5352 5.2871 1.9766-11.09 31.16v-3.6094l-10.057-27.551 5.2441-1.9766-0.47266-2.5371zm156.1 2e-3 -0.42968 2.5352 5.2422 1.9766v33.096l-5.1992 1.9766 0.51562 2.5352h15.73l0.42969-2.5352-5.1152-1.9766v-15.947h20.287v15.947l-5.2422 1.9766 0.42969 2.5352h15.902l0.38671-2.5352-5.1152-1.9766v-33.096l5.2441-1.9766-0.42969-2.5352h-15.988l-0.42969 2.5352 5.2422 1.9766v14.613h-20.287v-14.613l5.2441-1.9766-0.42968-2.5352zm-27.205 0.17188c-1.7622 0-3.2676 1.4604-3.2676 3.2656s1.5054 3.2227 3.2676 3.2227c1.8052 0 3.3086-1.4175 3.3086-3.2227s-1.5034-3.2656-3.3086-3.2656zm-209.29 0.68941c-5.7 0-10.301 5.7008-10.301 12.801 0 7 4.6008 12.801 10.301 12.801s10.301-5.7008 10.301-12.801c0-7-4.6008-12.801-10.301-12.801zm0 3.2012c3.9 0 7.0996 4.2996 7.0996 9.5996s-3.1996 9.5996-7.0996 9.5996-7.0996-4.2996-7.0996-9.5996 3.1996-9.5996 7.0996-9.5996zm373.9 9.3008-7.2637 0.64648 0.47265 2.1914h3.6113v36.877l-3.9121 1.2461 0.47266 2.1914h12.594l0.47265-2.1914-3.9551-1.2461v-35.287c2.7077-0.94556 4.7279-1.5898 7.0918-1.5898 4.384 0 6.9629 2.4062 6.9629 10.572s-4.8562 13.109-9.627 13.109h-2.4922v2.2363h2.6211c9.1977 0 15.902-5.9743 15.902-14.914 0-9.2837-3.9957-13.842-12.807-13.842-2.4928 0-5.9312 1.2477-7.6504 2.2363zm114.84 0-6.4043 0.64453 0.42968 2.1914h3.0527v22.48l-3.9551 1.2891 0.47266 2.1484h12.594l0.47265-2.1484-3.9102-1.2891v-24.672zm26.949 0c-9.4126 0-15.473 5.4157-15.473 14.742 0 8.8969 4.6846 14.656 15.344 14.656 3.9112 0 7.0911-1.2024 9.6699-3.5234l-1.375-1.9785c-2.4499 1.5473-4.8137 2.709-7.9512 2.709-7.5215 0-9.3691-5.8457-9.3691-13.066 0-7.0917 3.309-11.305 9.3262-11.305v2e-3c1.5473 0 3.6539 0.34358 5.2871 0.98828l1.1602 4.3398 2.1484-0.42969v-4.9844c-3.0086-1.5043-5.845-2.1504-8.7676-2.1504zm20.156 0-6.4023 0.64453 0.42969 2.1914h3.0938v22.48l-3.9961 1.2891 0.47266 2.1484h12.592l0.47265-2.1484-3.9102-1.2891v-24.672zm-402.38 2e-3c-8.4241 0-14.57 5.4158-14.57 14.656 0 8.9398 4.9852 14.742 15.645 14.742 3.9112 0 7.7788-1.2024 10.357-3.5234l-1.375-1.9785c-2.4928 1.5473-5.4152 2.709-8.5957 2.709-6.533 0-9.6289-5.2015-9.6289-12.422v-0.30078h19.256c0.47278-1.0315 0.98828-2.8356 0.98828-4.4258 0-5.8023-5.1138-9.457-12.076-9.457zm24.068 0-6.9629 0.64453 0.38672 2.1914h3.0078v22.48l-3.9102 1.2891 0.42969 2.1484h12.637l0.47266-2.1484-3.9551-1.2891v-20.889c2.106-0.77364 4.6851-1.5898 6.3613-1.5898 1.4613 0 2.1052 0.1718 2.9648 0.47266l1.334 4.2539 2.1484-0.42969v-6.1035c-1.7192-0.73066-3.525-1.0312-5.3301-1.0312-3.1375 0-5.4155 1.0739-7.4785 2.2344zm29.355 0c-7.0487 0-11.348 4.7293-11.348 10.145 0 3.6963 1.5912 6.5328 4.2559 8.209l-3.3086 5.543c0 2.6218 2.3628 3.783 4.2109 4.3848l6.5762 2.1484c3.0086 0.98854 6.4902 2.5363 6.4902 5.416 0 3.3954-3.782 5.2012-7.9941 5.2012-4.4699 0-7.3496-2.6654-7.3496-5.1152 0-1.5043 0.90191-3.1364 2.707-4.125l-1.2031-1.8066c-2.5358 0.90258-5.416 3.2238-5.416 6.2754 0 4.9857 5.5451 7.5215 11.262 7.5215 7.1347 0 13.883-2.6643 13.883-9.627 0-4.9427-4.0827-7.2202-10.1-8.9824h-2e-3l-5.5879-1.5918c-1.7192-0.51576-2.793-1.3318-2.793-2.4922 0-0.30086 0.55855-1.332 0.73047-1.6758 1.5473 0.60172 3.3101 0.90234 5.1582 0.90234 6.5759 0 11.648-3.6528 11.648-10.186 0-2.4499-0.68916-4.5132-1.8926-6.1035l-3.6094-1.2031h5.502l0.60156-2.8379-7.6504 0.64648c-1.4613-0.4298-3.0093-0.64648-4.7715-0.64648zm22.65 0-6.4043 0.64453 0.42969 2.1914h3.0508v22.48l-3.9531 1.2891 0.47265 2.1484h12.594l0.47266-2.1484-3.9121-1.2891v-24.672zm88.797 0c-8.4241 0-14.57 5.4158-14.57 14.656 0 8.9398 4.9852 14.742 15.645 14.742 3.9112 0 7.7788-1.2044 10.357-3.5254l-1.375-1.9766c-2.4928 1.5473-5.4152 2.709-8.5957 2.709-6.533 0-9.6289-5.2015-9.6289-12.422v-0.30078h19.256c0.47278-1.0315 0.98829-2.8375 0.98829-4.4277 0-5.8023-5.1138-9.4551-12.076-9.4551zm27.549 0c-6.533 0-10.83 3.1373-10.83 7.9941 0 4.7708 3.6103 6.7904 7.6504 8.6816 3.3524 1.5043 7.5645 2.923 7.5645 5.8887 0 2.8797-2.7509 4.6426-6.6191 4.6426-1.2464 0-3.1813-0.5155-4.5137-0.98828l-1.9766-5.8457-2.2344 0.42969v6.4043c3.0946 1.5043 6.6184 2.1914 9.2402 2.1914 6.9628 0 10.918-3.3092 10.918-8.4238 0-5.2865-4.5556-7.3061-8.8106-9.1113-2.8367-1.2034-6.4473-2.7082-6.4473-5.416 0-2.4928 2.1476-4.2129 5.4141-4.2129 1.9341 0 3.9548 0.34358 5.2871 0.98828l1.2031 4.3418 2.1504-0.42969v-4.9863c-2.5788-1.3324-5.3313-2.1484-7.9961-2.1484zm24.801 0c-3.0516 0-5.8879 0.64414-8.8965 2.1484v4.9863l2.1484 0.42969 1.2891-4.6426c1.6762-0.60172 3.525-0.6875 5.1152-0.6875 3.5244 0 6.0176 2.0204 6.0176 6.3184v3.1797c-7.8224 0-16.979 1.3337-16.979 9.7578 0 5.2006 3.9128 7.9082 8.9414 7.9082 4.1691 0 5.8022-0.94483 8.123-2.793l1.0312 2.1484h7.9941l0.42969-2.1484-3.9121-1.291v-14.268c0-7.0917-3.8239-11.047-11.303-11.047zm80.029 0c-3.0516 0-5.8898 0.64414-8.8984 2.1484l2e-3 4.9844 2.1484 0.42969 1.2891-4.6406c1.6762-0.60172 3.525-0.6875 5.1152-0.6875 3.5244 0 6.0156 2.0204 6.0156 6.3184v3.1797c-7.8224 0-16.977 1.3318-16.977 9.7559 0 5.2006 3.9109 7.9082 8.9395 7.9082 4.1691 0 5.8021-0.94483 8.123-2.793l1.0332 2.1484h7.9941l0.42968-2.1484-3.9121-1.2891v-14.27c0-7.0917-3.8239-11.045-11.303-11.045zm15.602 0.64258-0.51562 2.1914 4.0391 1.248 10.488 24.67 2.6211 0.64453-1.375 3.6973c-2.5358 6.6189-7.4366 7.3495-10.703 7.8652l0.47266 2.2344 7.1777 0.60156c1.9341-1.3324 4.2555-5.9738 5.2441-8.6816l10.873-31.074 3.9121-1.2031-0.42969-2.1934h-10.357l-0.38867 2.1934 4.5137 1.2461-7.4356 21.232v-1.377l-8.5098-19.855 5.1152-1.248-0.42969-2.1914zm-312.85 1.5918c4.1691 0 6.4473 2.3211 6.4473 6.7051 0 0.8596-0.1718 2.0213-0.42968 2.7949h-14.098c0.51576-5.5874 2.9225-9.5 8.0801-9.5zm164.87 0c4.1691 0 6.4453 2.3211 6.4453 6.7051 0 0.8596-0.17181 2.0213-0.42969 2.7949h-14.098c0.51576-5.5874 2.9244-9.5 8.082-9.5zm-111.45 2e-3c3.4814 0 6.4473 2.4498 6.4473 7.8223 0 5.3295-3.1808 8.0371-6.4473 8.0371-3.3095 0-6.0176-3.0084-6.0176-8.3379 0.086-5.3725 2.5362-7.5215 6.0176-7.5215zm-157.19 1.3613c-5.7 0-10.299 5.7988-10.299 12.799s4.5988 12.801 10.299 12.801 10.301-5.8008 10.301-12.801-4.6008-12.799-10.301-12.799zm0 3.0996c3.9 0 7.1016 4.2996 7.1016 9.5996s-3.2016 9.5996-7.1016 9.5996-7.0996-4.2996-7.0996-9.5996 3.1996-9.5996 7.0996-9.5996zm406.69 7.1836v9.4121c-1.2894 2.149-3.222 3.3105-5.6289 3.3105s-4.9863-1.4188-4.9863-5.7168c0-4.4269 3.0078-7.0059 10.615-7.0059zm-80.029 2e-3v9.4121c-1.2894 2.149-3.222 3.3086-5.6289 3.3086s-4.9863-1.4188-4.9863-5.7168c0-4.4269 3.0078-7.0039 10.615-7.0039z"/></svg>