<svg xmlns="http://www.w3.org/2000/svg" fill="#88df95" viewBox="0 0 27.86 27.86"><path d="M27.47 11.97c.73-1.3.45-2.34-.84-3.1a3.78 3.78 0 0 1-1.96-3.4c-.02-1.5-.78-2.26-2.27-2.28A3.78 3.78 0 0 1 19 1.23C18.24-.06 17.2-.33 15.9.4c-1.32.73-2.62.73-3.93 0-1.3-.73-2.34-.46-3.1.83-.77 1.29-1.9 1.94-3.4 1.96s-2.26.78-2.28 2.28a3.78 3.78 0 0 1-1.96 3.4c-1.29.76-1.56 1.8-.83 3.1.73 1.3.73 2.61 0 3.92-.73 1.3-.46 2.34.83 3.11a3.78 3.78 0 0 1 1.96 3.4c.02 1.5.78 2.25 2.28 2.27 1.5.02 2.63.67 3.4 1.96.76 1.29 1.8 1.56 3.1.83a3.77 3.77 0 0 1 3.92 0c1.3.73 2.35.46 3.1-.83a3.78 3.78 0 0 1 3.4-1.96c1.5-.02 2.26-.78 2.28-2.28.02-1.5.68-2.62 1.96-3.39 1.29-.77 1.57-1.8.84-3.1a3.77 3.77 0 0 1 0-3.93zM6.52 10.33A2.61 2.61 0 0 1 9.14 7.7a2.61 2.61 0 0 1 2.61 2.62 2.61 2.61 0 0 1-2.62 2.61 2.61 2.61 0 0 1-2.6-2.61zm3.2 11.5a.8.8 0 0 1-.68.36.81.81 0 0 1-.44-.13.81.81 0 0 1-.24-1.12l9.78-14.9a.8.8 0 0 1 1.12-.23.81.81 0 0 1 .23 1.12zm9-1.68a2.62 2.62 0 0 1 0-5.23 2.62 2.62 0 0 1 2.62 2.62 2.62 2.62 0 0 1-2.62 2.61z"/></svg>