<svg xmlns="http://www.w3.org/2000/svg" fill="#88df95" viewBox="0 0 689 90"><path d="M133.3 31h6q-2.5 9-5.7 17.4-3.3 8.3-6.4 15H122q-3-6.7-6.3-15Q112.4 40 110 31h6.2l1.8 6.4q1 3.5 2.2 6.9l2.3 6.6 2.3 5.6L127 51l2.3-6.6q1.2-3.4 2.2-6.9l1.8-6.4zm10.1 16.2q0-4.3 1.3-7.5 1.2-3.2 3.3-5.3 2-2.2 4.7-3.2t5.5-1q6.5 0 10 4t3.5 12.4v1l-.1 1h-22.1q.3 5.1 2.9 7.7 2.5 2.7 8 2.7 3 0 5.1-.6 2-.5 3.1-1l.8 4.8q-1 .6-3.7 1.2-2.6.7-6 .7-4.2 0-7.3-1.3-3-1.3-5-3.5-2-2.3-3-5.4-1-3-1-6.7zm6.2-3.2h16q0-3.9-2-6.4-2-2.6-5.5-2.6-2 0-3.5.8t-2.6 2q-1 1.3-1.6 3-.6 1.5-.8 3.2zM192 30.2l1.7.1 1.9.3 1.7.3 1.1.3-1 5-2.2-.5q-1.6-.4-4-.4-1.7 0-3.3.4l-2 .4v27.2H180v-31q2-.7 5.1-1.4 3-.7 6.9-.7zm32.3 31.2v-1.3q-.7.5-2.9 1.3-2.1.7-5 .7t-5.5-1q-2.6-.9-4.5-2.8-2-2-3-4.9-1.2-3-1.2-7 0-3.5 1-6.5 1.2-2.9 3.2-5 2-2.2 5-3.4 2.8-1.3 6.5-1.3 4 0 7 .7 3.1.5 5.1 1v29q0 7.4-3.8 10.7-3.9 3.4-11.7 3.4-3 0-5.7-.5-2.8-.5-4.8-1.2l1.1-5q1.7.7 4.3 1.2 2.5.5 5.2.5 5.2 0 7.4-2 2.3-2 2.3-6.6zm0-6.4V36l-2.4-.4q-1.5-.2-4-.2-4.6 0-7.1 3t-2.5 8.1q0 2.8.7 4.8t2 3.3q1.1 1.3 2.7 2 1.6.5 3.3.5 2.3 0 4.2-.6 2-.7 3-1.5zm21.5-24v32.3H240V31h5.8zm-3-6q-1.5 0-2.6-1-1-1-1-2.7 0-1.7 1-2.8 1-1 2.6-1t2.7 1q1 1 1 2.8 0 1.7-1 2.8-1.1 1-2.7 1zm18.7 38.3h-5.8V16l5.8-1v16.6q1.7-.6 3.5-1t3.6-.4q3.9 0 6.4 1.2 2.6 1 4.1 3 1.5 2 2.1 4.7.7 2.7.7 6v18.2H276v-17q0-2.9-.4-5t-1.3-3.5q-1-1.2-2.5-1.9-1.6-.5-3.9-.5h-2l-1.8.4-1.6.3-1 .3v27zm28-16.1q0-4.3 1.2-7.5 1.3-3.2 3.3-5.3 2-2.2 4.8-3.2 2.6-1 5.4-1 6.6 0 10 4 3.5 4 3.5 12.4v2h-22.2q.4 5.1 3 7.7 2.5 2.7 7.9 2.7 3 0 5.1-.6 2.1-.5 3.2-1l.8 4.8q-1.1.6-3.7 1.2-2.7.7-6 .7-4.2 0-7.4-1.3-3-1.3-5-3.5-2-2.3-3-5.4-1-3-1-6.7zm6.1-3.2h16q.1-3.9-1.9-6.4-2-2.6-5.6-2.6-2 0-3.5.8t-2.6 2q-1 1.3-1.6 3-.6 1.5-.8 3.2zm38 15.1q3.5 0 5.2-.9 1.7-1 1.7-3 0-2.1-1.6-3.4-1.7-1.2-5.6-2.8l-3.5-1.5q-1.8-.8-3-1.8t-2-2.6q-.8-1.4-.8-3.6 0-4.3 3.2-6.9 3.2-2.4 8.7-2.4h2.7l2.6.5 2 .4 1.5.5-1.1 5q-1-.5-3-1T336 35q-2.4 0-4.3 1-1.7 1-1.7 3 0 1 .4 1.8.4.9 1.2 1.5.9.7 2.1 1.2 1.2.6 3 1.2l4 1.7q1.9.9 3.2 2 1.2 1 2 2.7.6 1.5.6 3.9 0 4.4-3.3 6.8-3.4 2.3-9.5 2.3-4.3 0-6.8-.8l-3.2-1 1-5 3.2 1q2.2.8 5.8.8zm31.2 0h3.6q1.6-.1 2.6-.4V49q-.6-.3-2-.5t-3.4-.2l-2.8.2q-1.4.2-2.6.8-1.2.5-2 1.6-.9 1-.9 2.7 0 3 2 4.3 2 1.2 5.5 1.2zm-.5-29q3.4 0 5.8 1 2.4.8 3.9 2.5 1.5 1.6 2 4 .7 2.2.7 5v20.1l-2 .4-3.1.4-3.6.3-4 .2q-2.7 0-5-.6-2.3-.5-4-1.7-1.6-1.3-2.6-3.2-.9-2-.9-4.8 0-2.7 1-4.7 1.2-1.9 3-3 2-1.2 4.4-1.8 2.5-.6 5.2-.6l1.8.1 1.8.3 1.5.2.8.3v-1.7q0-1.4-.3-2.8t-1.1-2.5q-.8-1-2.2-1.7-1.4-.7-3.6-.7-3 0-5 .4-2.2.4-3.2.9l-.8-4.8q1.2-.5 3.8-1 2.6-.4 5.7-.4zm44.5 17q0-5.6-2.8-8.6t-7.5-3l-4.1.1q-1.5.2-2.3.5v20.4q1 .8 3 1.7 2 .8 4.4.8 2.5 0 4.2-1 1.8-.9 3-2.5 1-1.5 1.6-3.7.5-2.1.5-4.6zm6 0q0 3.8-1 6.9-1 3-2.8 5.3-1.9 2.3-4.6 3.5-2.7 1.3-6.2 1.3-2.8 0-5-.8-2-.7-3.1-1.4v13h-5.8v-43q2-.5 5.1-1 3-.7 7.1-.7 3.8 0 6.7 1.2 3 1.2 5.2 3.4 2 2.2 3.2 5.3 1.2 3.2 1.2 7zm18.7 12-.9 4.8q-5.3-.1-7.5-2.3-2.3-2.2-2.3-6.8V16l5.8-1v38.9q0 1.5.2 2.4.3 1 .8 1.5.6.5 1.6.8.9.3 2.3.5zm17.4 0h3.6q1.6-.1 2.7-.4V49q-.7-.3-2-.5-1.5-.2-3.5-.2l-2.7.2q-1.5.2-2.7.8-1.2.5-2 1.6-.8 1-.8 2.7 0 3 2 4.3 2 1.2 5.4 1.2zm-.5-29q3.5 0 5.9 1 2.4.8 3.8 2.5 1.5 1.6 2 4 .7 2.2.7 5v20.1l-2 .4-3 .4-3.7.3-4 .2q-2.6 0-5-.6-2.3-.5-4-1.7-1.6-1.3-2.6-3.2-.9-2-.9-4.8 0-2.7 1.1-4.7 1-1.9 3-3 1.8-1.2 4.3-1.8 2.5-.6 5.2-.6l1.9.1 1.7.3 1.5.2.9.3v-1.7q0-1.4-.4-2.8-.3-1.4-1-2.5-.9-1-2.3-1.7T450 35q-2.9 0-5 .4-2.2.4-3.3.9l-.6-4.8q1-.5 3.7-1 2.6-.4 5.7-.4zm17.2 44 1-4.7q.7.3 1.8.5 1 .3 2.1.3 3.5 0 5.4-1.5 2-1.5 3.5-5-4-7.4-7.4-15.8-3.3-8.4-5.6-17h6.2q.7 2.9 1.7 6.1l2.1 6.6 2.6 6.9 2.9 6.6q2.3-6.5 4-13 1.8-6.4 3.3-13.1h6q-2.2 9.1-5 17.5-2.7 8.5-5.8 15.8-1.3 2.8-2.6 4.8-1.4 2-3 3.4-1.6 1.3-3.6 1.9-2 .6-4.6.6h-1.4l-1.5-.4q-.7 0-1.3-.3l-.8-.3zM509 31v32.3h-5.8V31h5.8zm-3-6q-1.5 0-2.5-1-1.2-1-1.2-2.7 0-1.7 1.2-2.8 1-1 2.6-1 1.5 0 2.6 1t1.1 2.8q0 1.7-1 2.8-1.2 1-2.7 1zm27 39q-3.9 0-6.8-1.2-3-1.2-5-3.5-2-2.2-3-5.3-1-3-1-6.8t1-6.9q1.1-3 3.1-5.3t5-3.6q2.8-1.2 6.4-1.2 2.1 0 4.3.3 2.2.4 4.2 1.2l-1.3 4.9q-1.3-.6-3-1-1.8-.4-3.7-.4-4.9 0-7.4 3-2.6 3.2-2.6 9 0 2.6.6 4.8.6 2.2 1.9 3.7 1.2 1.6 3.2 2.4 2 .9 4.9.9 2.3 0 4.1-.5 2-.4 3-1l.8 5-1.4.5-2.2.5q-1.1.3-2.5.4l-2.6.2zm20.7-33v32.3H548V31h5.8zm-3-6q-1.5 0-2.6-1-1-1-1-2.7 0-1.7 1-2.8 1-1 2.6-1t2.7 1q1 1 1 2.8 0 1.7-1 2.8-1.1 1-2.7 1zm19.8 35q0 1.6-1.1 2.9-1.1 1.2-3.1 1.2t-3-1.2q-1.1-1.3-1.1-3t1-2.9q1.2-1.2 3.1-1.2 2 0 3 1.2 1.2 1.2 1.2 3zm22.5 4q-3.9 0-6.9-1.2-3-1.2-5-3.5-2-2.2-3-5.3-1-3-1-6.8t1.2-6.9q1-3 3-5.3t5-3.6q2.8-1.2 6.4-1.2 2.1 0 4.3.3 2.2.4 4.1 1.2l-1.2 4.9q-1.3-.6-3-1-1.8-.4-3.7-.4-4.9 0-7.4 3-2.6 3.2-2.6 9 0 2.6.6 4.8.5 2.2 1.8 3.7 1.3 1.6 3.3 2.4 2 .9 4.9.9 2.3 0 4.1-.5 2-.4 3-1l.8 5-1.5.5-2 .5-2.6.4-2.6.2zm43.4-16.9q0 3.9-1 7-1.2 3.1-3.2 5.3-2 2.3-4.8 3.5-2.8 1.2-6.1 1.2-3.4 0-6.2-1.2-2.8-1.2-4.8-3.5-2-2.2-3.1-5.3-1.1-3.1-1.1-7 0-3.8 1-6.9 1.2-3.2 3.2-5.4t4.8-3.4q2.8-1.2 6.2-1.2 3.3 0 6 1.2t4.9 3.4q2 2.2 3.1 5.4 1.1 3.1 1.1 7zm-6 0q0-5.4-2.5-8.6-2.4-3.3-6.6-3.3-4.3 0-6.7 3.3-2.5 3.2-2.5 8.6 0 5.5 2.5 8.7 2.4 3.2 6.7 3.2 4.2 0 6.6-3.2 2.5-3.2 2.5-8.7zm14.2 16.2V32q2-.5 5.3-1 3.2-.7 7.5-.7 3.1 0 5.3.9 2 .8 3.5 2.5l1.3-1 2.4-1 3-1q1.7-.4 3.6-.4 3.8 0 6.1 1.2 2.4 1 3.7 3t1.8 4.8q.5 2.7.5 6v18.1h-5.8v-17q0-2.8-.3-4.9-.2-2-1-3.4-.8-1.3-2.1-2-1.4-.6-3.5-.6-3 0-4.8.8-2 .7-2.6 1.3.5 1.7.7 3.6.3 1.9.3 4v18.2h-5.8v-17q0-2.8-.3-4.9-.3-2-1.1-3.4-.8-1.3-2.1-2-1.4-.6-3.4-.6H655q-1 0-1.9.2-.9 0-1.6.2l-1 .2v27.3h-5.8zM89 39.3c2.3-4.2 1.4-7.5-2.7-10a12.2 12.2 0 0 1-6.3-11c-.1-4.8-2.6-7.2-7.4-7.3-4.8 0-8.5-2.2-11-6.3-2.4-4.2-5.8-5-10-2.7a12.2 12.2 0 0 1-12.7 0c-4.2-2.4-7.5-1.5-10 2.7a12.2 12.2 0 0 1-11 6.3c-4.8 0-7.3 2.5-7.3 7.3-.1 4.9-2.2 8.5-6.4 11-4.1 2.5-5 5.8-2.7 10 2.4 4.3 2.4 8.5 0 12.7-2.3 4.2-1.4 7.6 2.7 10 4.2 2.5 6.3 6.2 6.4 11 0 4.9 2.5 7.3 7.3 7.4 4.9 0 8.5 2.2 11 6.3 2.5 4.2 5.8 5 10 2.7 4.3-2.4 8.5-2.4 12.7 0 4.2 2.4 7.6 1.5 10-2.7 2.5-4.1 6.2-6.3 11-6.3s7.3-2.5 7.4-7.4a12 12 0 0 1 6.3-11c4.1-2.4 5-5.8 2.7-10a12.2 12.2 0 0 1 0-12.6zM21.2 34a8.4 8.4 0 0 1 8.5-8.4A8.4 8.4 0 0 1 38 34c0 4.7-3.8 8.5-8.4 8.5a8.4 8.4 0 0 1-8.5-8.5zm10.3 37.2a2.6 2.6 0 0 1-2.1 1.2 3 3 0 0 1-1.5-.5 2.6 2.6 0 0 1-.7-3.6l31.6-48.1a2.6 2.6 0 0 1 3.6-.8 2.6 2.6 0 0 1 .7 3.7L31.5 71zm29.1-5.4a8.5 8.5 0 0 1 0-17 8.5 8.5 0 0 1 8.5 8.5c0 4.7-3.8 8.5-8.5 8.5z"/></svg>