<svg xmlns="http://www.w3.org/2000/svg" viewBox="0 0 1000 1000"><path fill="#00252d" d="M0 0h1000v1000H0z"/><path fill="#88df95" d="M902.7 440.8c21.1-38.7 12.9-69.1-25-92.2-36.8-20.2-59-59-58-101.3 0-44.3-24-66.4-68.2-67.3-44.2 0-78.3-20.3-101.4-58C628 83.1 596.7 75.7 558 97a112 112 0 0 1-117.1 0c-38.7-21.2-69.1-13.8-92.2 25-20.2 36.8-59 58.9-101.3 58-44.3 0-67.3 23-67.3 67.3 0 46-20.3 78.3-59 101.3-36.9 23-46.1 53.5-24.9 92.2q33.2 59.3 0 117c-20.3 38.8-12.9 71 25.8 92.2a114 114 0 0 1 59 101.4c0 46 23 67.3 67.3 68.2 46 0 78.3 20.3 101.4 58 23 38.8 53.4 46.2 92.1 25 39.7-22.2 78.4-22.2 117 0 38.8 22 70.1 13.8 92.2-25 23-36.8 57.2-58 101.4-58s67.3-23 68.2-68.2a111 111 0 0 1 58-101.4c37.9-22 46.2-53.4 25-92.1a112 112 0 0 1 0-116.2zm-624-48.8a77.4 77.4 0 1 1 154.8 0 78 78 0 0 1-77.4 78.3 77.4 77.4 0 0 1-78.3-78.3zm95 342.8c-3.8 6.5-11.1 11-18.5 11a28 28 0 0 1-14.8-4.5A24 24 0 0 1 334 708l291.2-442.4a24 24 0 1 1 39.7 25.8L373.6 733.9zM641.7 685a78.3 78.3 0 1 1 0-156.6 78.3 78.3 0 0 1 0 156.6"/></svg>