<svg data-v-423bf9ae="" xmlns="http://www.w3.org/2000/svg" viewBox="0 0 573 90" class="iconLeft"><!----><!----><!----><g data-v-423bf9ae="" id="0a81e72c-3845-4a99-a96c-cd47a07ed13c" fill="black" transform="matrix(4.297994257596313,0,0,4.297994257596313,109.69914399156744,14.82807978166861)"><path d="M8.41 1.75L9.63 1.29L9.52 0.70L6.68 0.70L6.57 1.29L7.80 1.75L5.22 9.00L5.22 8.16L2.88 1.75L4.10 1.29L3.99 0.70L0.18 0.70L0.07 1.29L1.30 1.75L4.58 10.74L5.31 10.50ZM10.65 6.54C10.77 5.24 11.33 4.33 12.53 4.33C13.50 4.33 14.03 4.87 14.03 5.89C14.03 6.09 13.99 6.36 13.93 6.54ZM12.87 10.00C11.35 10.00 10.63 8.79 10.63 7.11L10.63 7.04L15.11 7.04C15.22 6.80 15.34 6.38 15.34 6.01C15.34 4.66 14.15 3.81 12.53 3.81C10.57 3.81 9.14 5.07 9.14 7.22C9.14 9.30 10.30 10.65 12.78 10.65C13.69 10.65 14.59 10.37 15.19 9.83L14.87 9.37C14.29 9.73 13.61 10.00 12.87 10.00ZM21.60 5.47L21.60 4.05C21.20 3.88 20.78 3.81 20.36 3.81C19.63 3.81 19.10 4.06 18.62 4.33L18.13 3.81L16.51 3.96L16.60 4.47L17.30 4.47L17.30 9.70L16.39 10.00L16.49 10.50L19.43 10.50L19.54 10.00L18.62 9.70L18.62 4.84C19.11 4.66 19.71 4.47 20.10 4.47C20.44 4.47 20.59 4.51 20.79 4.58L21.10 5.57ZM25.58 9.67L24.28 9.30C23.88 9.18 23.63 8.99 23.63 8.72C23.63 8.65 23.76 8.41 23.80 8.33C24.16 8.47 24.57 8.54 25.00 8.54C26.53 8.54 27.71 7.69 27.71 6.17C27.71 5.60 27.55 5.12 27.27 4.75L26.43 4.47L27.71 4.47L27.85 3.81L26.07 3.96C25.73 3.86 25.37 3.81 24.96 3.81C23.32 3.81 22.32 4.91 22.32 6.17C22.32 7.03 22.69 7.69 23.31 8.08L22.54 9.37C22.54 9.98 23.09 10.25 23.52 10.39L25.05 10.89C25.75 11.12 26.56 11.48 26.56 12.15C26.56 12.94 25.68 13.36 24.70 13.36C23.66 13.36 22.99 12.74 22.99 12.17C22.99 11.82 23.20 11.44 23.62 11.21L23.34 10.79C22.75 11.00 22.08 11.54 22.08 12.25C22.08 13.41 23.37 14 24.70 14C26.36 14 27.93 13.38 27.93 11.76C27.93 10.61 26.98 10.08 25.58 9.67ZM24.96 4.33C25.77 4.33 26.46 4.90 26.46 6.15C26.46 7.39 25.72 8.02 24.96 8.02C24.19 8.02 23.56 7.32 23.56 6.08C23.58 4.83 24.15 4.33 24.96 4.33ZM30.87 9.70L30.87 3.96L30.23 3.81L28.74 3.96L28.84 4.47L29.55 4.47L29.55 9.70L28.63 10.00L28.74 10.50L31.67 10.50L31.78 10.00ZM30.17 0.74C29.76 0.74 29.41 1.08 29.41 1.50C29.41 1.92 29.76 2.25 30.17 2.25C30.59 2.25 30.94 1.92 30.94 1.50C30.94 1.08 30.59 0.74 30.17 0.74ZM46.52 1.29L46.42 0.70L42.70 0.70L42.60 1.29L43.82 1.75L43.82 5.15L39.10 5.15L39.10 1.75L40.32 1.29L40.22 0.70L36.50 0.70L36.40 1.29L37.62 1.75L37.62 9.45L36.41 9.91L36.53 10.50L40.19 10.50L40.29 9.91L39.10 9.45L39.10 5.74L43.82 5.74L43.82 9.45L42.60 9.91L42.70 10.50L46.40 10.50L46.49 9.91L45.30 9.45L45.30 1.75ZM49.01 6.54C49.13 5.24 49.69 4.33 50.89 4.33C51.86 4.33 52.39 4.87 52.39 5.89C52.39 6.09 52.35 6.36 52.29 6.54ZM51.23 10.00C49.71 10.00 48.99 8.79 48.99 7.11L48.99 7.04L53.47 7.04C53.58 6.80 53.70 6.38 53.70 6.01C53.70 4.66 52.51 3.81 50.89 3.81C48.93 3.81 47.50 5.07 47.50 7.22C47.50 9.30 48.66 10.65 51.14 10.65C52.05 10.65 52.95 10.37 53.55 9.83L53.23 9.37C52.65 9.73 51.97 10.00 51.23 10.00ZM56.90 10.65C58.52 10.65 59.44 9.88 59.44 8.69C59.44 7.46 58.38 6.99 57.39 6.57C56.73 6.29 55.89 5.94 55.89 5.31C55.89 4.73 56.39 4.33 57.15 4.33C57.60 4.33 58.07 4.41 58.38 4.56L58.66 5.57L59.16 5.47L59.16 4.31C58.56 4.00 57.92 3.81 57.30 3.81C55.78 3.81 54.78 4.54 54.78 5.67C54.78 6.78 55.62 7.25 56.56 7.69C57.34 8.04 58.32 8.37 58.32 9.06C58.32 9.73 57.68 10.14 56.78 10.14C56.49 10.14 56.04 10.02 55.73 9.91L55.27 8.55L54.75 8.65L54.75 10.14C55.47 10.49 56.29 10.65 56.90 10.65ZM61.00 5.47L61.50 5.57L61.80 4.49C62.19 4.35 62.62 4.33 62.99 4.33C63.81 4.33 64.39 4.80 64.39 5.80L64.39 6.54C62.57 6.54 60.44 6.85 60.44 8.81C60.44 10.02 61.35 10.65 62.52 10.65C63.49 10.65 63.87 10.43 64.41 10.00L64.65 10.50L66.51 10.50L66.61 10.00L65.70 9.70L65.70 6.38C65.70 4.73 64.81 3.81 63.07 3.81C62.36 3.81 61.70 3.96 61.00 4.31ZM64.39 9.23C64.09 9.73 63.64 10.00 63.08 10.00C62.52 10.00 61.92 9.67 61.92 8.67C61.92 7.64 62.62 7.04 64.39 7.04ZM69.50 10.50L70.11 10.50C72.25 10.50 73.81 9.11 73.81 7.03C73.81 4.87 72.88 3.81 70.83 3.81C70.25 3.81 69.45 4.10 69.05 4.33L68.47 3.81L66.78 3.96L66.89 4.47L67.73 4.47L67.73 13.05L66.82 13.34L66.93 13.85L69.86 13.85L69.97 13.34L69.05 13.05L69.05 4.84C69.68 4.62 70.15 4.47 70.70 4.47C71.72 4.47 72.32 5.03 72.32 6.93C72.32 8.83 71.19 9.98 70.08 9.98L69.50 9.98ZM77.15 9.70L77.15 0.20L76.52 0.04L75.04 0.20L75.14 0.70L75.84 0.70L75.84 9.70L74.93 10.00L75.03 10.50L77.97 10.50L78.06 10.00ZM79.62 5.47L80.12 5.57L80.42 4.49C80.81 4.35 81.24 4.33 81.61 4.33C82.43 4.33 83.01 4.80 83.01 5.80L83.01 6.54C81.19 6.54 79.06 6.85 79.06 8.81C79.06 10.02 79.97 10.65 81.14 10.65C82.11 10.65 82.49 10.43 83.03 10.00L83.27 10.50L85.13 10.50L85.23 10.00L84.32 9.70L84.32 6.38C84.32 4.73 83.43 3.81 81.69 3.81C80.98 3.81 80.32 3.96 79.62 4.31ZM83.01 9.23C82.71 9.73 82.26 10.00 81.70 10.00C81.14 10.00 80.54 9.67 80.54 8.67C80.54 7.64 81.24 7.04 83.01 7.04ZM91.91 4.75L92.82 4.47L92.72 3.96L90.31 3.96L90.22 4.47L91.27 4.76L89.54 9.70L89.54 9.38L87.56 4.76L88.75 4.47L88.65 3.96L85.32 3.96L85.20 4.47L86.14 4.76L88.58 10.50L89.19 10.65L88.87 11.51C88.28 13.05 87.14 13.22 86.38 13.34L86.49 13.86L88.16 14C88.61 13.69 89.15 12.61 89.38 11.98ZM95.83 9.70L95.83 3.96L95.19 3.81L93.70 3.96L93.80 4.47L94.51 4.47L94.51 9.70L93.59 10.00L93.70 10.50L96.63 10.50L96.74 10.00ZM101.50 4.33C101.86 4.33 102.35 4.41 102.73 4.56L103.00 5.57L103.50 5.47L103.50 4.31C102.80 3.96 102.14 3.81 101.46 3.81C99.27 3.81 97.86 5.07 97.86 7.24C97.86 9.31 98.95 10.65 101.43 10.65C102.34 10.65 103.08 10.37 103.68 9.83L103.36 9.37C102.79 9.73 102.24 10.00 101.51 10.00C99.76 10.00 99.33 8.64 99.33 6.96C99.33 5.31 100.10 4.33 101.50 4.33ZM106.79 9.70L106.79 3.96L106.15 3.81L104.66 3.96L104.76 4.47L105.48 4.47L105.48 9.70L104.55 10.00L104.66 10.50L107.59 10.50L107.70 10.00Z"></path></g><!----><g data-v-423bf9ae="" id="d11ca32e-444d-42f5-b53e-528f46337273" transform="matrix(1,0,0,1,-5,-5)" stroke="none" fill="black"><path d="M38 74.9c-.3 0-.5-.1-.8-.2-.8-.4-1-1.4-.6-2.2L62.3 27c.4-.8 1.4-1 2.2-.6.8.4 1 1.4.6 2.2L39.4 74.1c-.3.5-.8.8-1.4.8zM35.5 55.3c-5.7 0-10.3-5.8-10.3-12.8 0-7.1 4.6-12.8 10.3-12.8s10.3 5.8 10.3 12.8c0 7.1-4.6 12.8-10.3 12.8zm0-22.4c-3.9 0-7.1 4.3-7.1 9.6s3.2 9.6 7.1 9.6 7.1-4.3 7.1-9.6-3.2-9.6-7.1-9.6zM65.2 71.4c-5.7 0-10.3-5.8-10.3-12.8s4.6-12.8 10.3-12.8c5.7 0 10.3 5.8 10.3 12.8s-4.6 12.8-10.3 12.8zm0-22.5c-3.9 0-7.1 4.3-7.1 9.6s3.2 9.6 7.1 9.6c3.9 0 7.1-4.3 7.1-9.6s-3.2-9.6-7.1-9.6z"></path><path d="M50.1 95.5c-4.9 0-9.5-2.2-12.5-6.2-1.4-1.8-3.8-2.8-6.4-2.5-.6.1-1.2.1-1.8.1-4.2 0-8.1-1.6-11.1-4.6-3.4-3.4-5.1-8.1-4.5-12.9.3-2.5-.7-5-2.5-6.4-3.9-3-6.2-7.6-6.2-12.5S7.3 41 11.3 38c1.8-1.4 2.8-3.9 2.5-6.4-.6-4.8 1.1-9.5 4.5-12.9 3-3 6.9-4.6 11.1-4.6.6 0 1.2 0 1.8.1 2.5.3 5-.7 6.4-2.5 3-3.9 7.6-6.2 12.5-6.2s9.5 2.2 12.5 6.2c1.4 1.8 3.8 2.8 6.4 2.5.6-.1 1.2-.1 1.8-.1 4.2 0 8.1 1.6 11.1 4.6 3.4 3.4 5.1 8.1 4.5 12.9-.3 2.5.7 5 2.5 6.4 3.9 3 6.2 7.6 6.2 12.5S92.9 60 88.9 63c-1.8 1.4-2.8 3.9-2.5 6.4.6 4.8-1.1 9.5-4.5 12.9-3 3-6.9 4.6-11.1 4.6-.6 0-1.2 0-1.8-.1-2.5-.3-5 .7-6.4 2.5-3 4-7.6 6.2-12.5 6.2zm-18-11.9c3.2 0 6.2 1.4 8 3.8 2.4 3.1 6 4.9 9.9 4.9s7.5-1.8 9.9-4.9c1.9-2.4 4.8-3.8 8-3.8.4 0 .9 0 1.3.1.5.1 1 .1 1.5.1 3.3 0 6.5-1.3 8.8-3.7 2.7-2.7 4-6.5 3.6-10.3-.4-3.6 1-7.2 3.7-9.3 3.1-2.4 4.9-6 4.9-9.9 0-3.9-1.8-7.5-4.9-9.9-2.7-2.1-4.2-5.7-3.7-9.3.4-3.8-.9-7.6-3.6-10.3-2.7-2.7-6.5-4-10.3-3.6-.4 0-.8.1-1.3.1-3.2 0-6.2-1.4-8-3.8-2.4-3.1-6-4.9-9.9-4.9s-7.5 1.8-9.9 4.9c-1.9 2.4-4.8 3.8-8 3.8-.4 0-.9 0-1.3-.1-.5-.1-1-.1-1.5-.1-3.3 0-6.5 1.3-8.8 3.7-2.7 2.7-4 6.5-3.6 10.3.4 3.6-1 7.2-3.7 9.3-3.1 2.4-4.9 6-4.9 9.9s1.8 7.6 4.9 9.9c2.7 2.1 4.2 5.7 3.7 9.3-.4 3.8.9 7.6 3.6 10.3 2.4 2.4 5.5 3.7 8.8 3.7.5 0 1 0 1.5-.1s.9-.1 1.3-.1z"></path><path d="M50.1 95.5c-4.9 0-9.5-2.2-12.5-6.2-1.4-1.8-3.8-2.8-6.4-2.5-.6.1-1.2.1-1.8.1-4.2 0-8.1-1.6-11.1-4.6-3.4-3.4-5.1-8.1-4.5-12.9.3-2.5-.7-5-2.5-6.4-3.9-3-6.2-7.6-6.2-12.5S7.3 41 11.3 38c1.8-1.4 2.8-3.9 2.5-6.4-.6-4.8 1.1-9.5 4.5-12.9 3-3 6.9-4.6 11.1-4.6.6 0 1.2 0 1.8.1 2.5.3 5-.7 6.4-2.5 3-3.9 7.6-6.2 12.5-6.2s9.5 2.2 12.5 6.2c1.4 1.8 3.8 2.8 6.4 2.5.6-.1 1.2-.1 1.8-.1 4.2 0 8.1 1.6 11.1 4.6 3.4 3.4 5.1 8.1 4.5 12.9-.3 2.5.7 5 2.5 6.4 3.9 3 6.2 7.6 6.2 12.5S92.9 60 88.9 63c-1.8 1.4-2.8 3.9-2.5 6.4.6 4.8-1.1 9.5-4.5 12.9-3 3-6.9 4.6-11.1 4.6-.6 0-1.2 0-1.8-.1-2.5-.3-5 .7-6.4 2.5-3 4-7.6 6.2-12.5 6.2zm-18-11.9c3.2 0 6.2 1.4 8 3.8 2.4 3.1 6 4.9 9.9 4.9s7.5-1.8 9.9-4.9c1.9-2.4 4.8-3.8 8-3.8.4 0 .9 0 1.3.1.5.1 1 .1 1.5.1 3.3 0 6.5-1.3 8.8-3.7 2.7-2.7 4-6.5 3.6-10.3-.4-3.6 1-7.2 3.7-9.3 3.1-2.4 4.9-6 4.9-9.9 0-3.9-1.8-7.5-4.9-9.9-2.7-2.1-4.2-5.7-3.7-9.3.4-3.8-.9-7.6-3.6-10.3-2.7-2.7-6.5-4-10.3-3.6-.4 0-.8.1-1.3.1-3.2 0-6.2-1.4-8-3.8-2.4-3.1-6-4.9-9.9-4.9s-7.5 1.8-9.9 4.9c-1.9 2.4-4.8 3.8-8 3.8-.4 0-.9 0-1.3-.1-.5-.1-1-.1-1.5-.1-3.3 0-6.5 1.3-8.8 3.7-2.7 2.7-4 6.5-3.6 10.3.4 3.6-1 7.2-3.7 9.3-3.1 2.4-4.9 6-4.9 9.9s1.8 7.6 4.9 9.9c2.7 2.1 4.2 5.7 3.7 9.3-.4 3.8.9 7.6 3.6 10.3 2.4 2.4 5.5 3.7 8.8 3.7.5 0 1 0 1.5-.1s.9-.1 1.3-.1z"></path></g><!----></svg>