<svg data-v-423bf9ae="" xmlns="http://www.w3.org/2000/svg" viewBox="0 0 689 90" class="iconLeft"><!----><!----><!----><g data-v-423bf9ae="" id="efda7f15-23c8-4d18-81a7-3c5a859ba5c7" fill="white" transform="matrix(4.444444444444445,0,0,4.444444444444445,109.02680796715947,5.311110575993851)"><path d="M5.46 5.77L6.80 5.77L6.80 5.77Q6.26 7.81 5.52 9.69L5.52 9.69L5.52 9.69Q4.79 11.56 4.10 13.05L4.10 13.05L2.93 13.05L2.93 13.05Q2.24 11.56 1.51 9.69L1.51 9.69L1.51 9.69Q0.77 7.81 0.22 5.77L0.22 5.77L1.62 5.77L1.62 5.77Q1.79 6.45 2.02 7.23L2.02 7.23L2.02 7.23Q2.25 8.01 2.51 8.77L2.51 8.77L2.51 8.77Q2.77 9.53 3.04 10.25L3.04 10.25L3.04 10.25Q3.30 10.96 3.54 11.52L3.54 11.52L3.54 11.52Q3.78 10.96 4.05 10.25L4.05 10.25L4.05 10.25Q4.31 9.53 4.57 8.77L4.57 8.77L4.57 8.77Q4.83 8.01 5.06 7.23L5.06 7.23L5.06 7.23Q5.29 6.45 5.46 5.77L5.46 5.77ZM7.74 9.42L7.74 9.42L7.74 9.42Q7.74 8.46 8.02 7.74L8.02 7.74L8.02 7.74Q8.30 7.01 8.76 6.54L8.76 6.54L8.76 6.54Q9.23 6.06 9.83 5.82L9.83 5.82L9.83 5.82Q10.43 5.59 11.06 5.59L11.06 5.59L11.06 5.59Q12.53 5.59 13.31 6.50L13.31 6.50L13.31 6.50Q14.10 7.42 14.10 9.30L14.10 9.30L14.10 9.30Q14.10 9.38 14.10 9.51L14.10 9.51L14.10 9.51Q14.10 9.65 14.08 9.76L14.08 9.76L9.10 9.76L9.10 9.76Q9.18 10.89 9.76 11.48L9.76 11.48L9.76 11.48Q10.33 12.07 11.55 12.07L11.55 12.07L11.55 12.07Q12.24 12.07 12.71 11.95L12.71 11.95L12.71 11.95Q13.17 11.83 13.41 11.72L13.41 11.72L13.59 12.81L13.59 12.81Q13.36 12.94 12.76 13.08L12.76 13.08L12.76 13.08Q12.17 13.22 11.41 13.22L11.41 13.22L11.41 13.22Q10.46 13.22 9.77 12.93L9.77 12.93L9.77 12.93Q9.07 12.64 8.62 12.14L8.62 12.14L8.62 12.14Q8.18 11.63 7.96 10.94L7.96 10.94L7.96 10.94Q7.74 10.25 7.74 9.42ZM9.13 8.71L12.74 8.71L12.74 8.71Q12.75 7.83 12.30 7.26L12.30 7.26L12.30 7.26Q11.84 6.69 11.05 6.69L11.05 6.69L11.05 6.69Q10.60 6.69 10.26 6.87L10.26 6.87L10.26 6.87Q9.91 7.04 9.67 7.32L9.67 7.32L9.67 7.32Q9.44 7.60 9.30 7.97L9.30 7.97L9.30 7.97Q9.17 8.33 9.13 8.71L9.13 8.71ZM18.66 5.61L18.66 5.61L18.66 5.61Q18.83 5.61 19.05 5.63L19.05 5.63L19.05 5.63Q19.26 5.66 19.47 5.69L19.47 5.69L19.47 5.69Q19.68 5.73 19.86 5.76L19.86 5.76L19.86 5.76Q20.03 5.80 20.12 5.82L20.12 5.82L19.89 6.96L19.89 6.96Q19.74 6.90 19.38 6.83L19.38 6.83L19.38 6.83Q19.03 6.75 18.47 6.75L18.47 6.75L18.47 6.75Q18.10 6.75 17.75 6.83L17.75 6.83L17.75 6.83Q17.39 6.90 17.28 6.93L17.28 6.93L17.28 13.05L15.97 13.05L15.97 6.08L15.97 6.08Q16.44 5.91 17.12 5.76L17.12 5.76L17.12 5.76Q17.81 5.61 18.66 5.61ZM25.94 12.63L25.94 12.32L25.94 12.32Q25.77 12.43 25.29 12.61L25.29 12.61L25.29 12.61Q24.81 12.78 24.16 12.78L24.16 12.78L24.16 12.78Q23.51 12.78 22.93 12.57L22.93 12.57L22.93 12.57Q22.34 12.36 21.91 11.92L21.91 11.92L21.91 11.92Q21.48 11.48 21.22 10.82L21.22 10.82L21.22 10.82Q20.97 10.16 20.97 9.25L20.97 9.25L20.97 9.25Q20.97 8.46 21.21 7.79L21.21 7.79L21.21 7.79Q21.45 7.13 21.90 6.64L21.90 6.64L21.90 6.64Q22.36 6.16 23.02 5.89L23.02 5.89L23.02 5.89Q23.67 5.61 24.50 5.61L24.50 5.61L24.50 5.61Q25.41 5.61 26.09 5.75L26.09 5.75L26.09 5.75Q26.77 5.88 27.23 5.99L27.23 5.99L27.23 12.49L27.23 12.49Q27.23 14.17 26.36 14.92L26.36 14.92L26.36 14.92Q25.49 15.68 23.73 15.68L23.73 15.68L23.73 15.68Q23.04 15.68 22.44 15.57L22.44 15.57L22.44 15.57Q21.83 15.46 21.38 15.30L21.38 15.30L21.62 14.17L21.62 14.17Q22.01 14.32 22.58 14.44L22.58 14.44L22.58 14.44Q23.14 14.56 23.76 14.56L23.76 14.56L23.76 14.56Q24.92 14.56 25.43 14.10L25.43 14.10L25.43 14.10Q25.94 13.64 25.94 12.63L25.94 12.63ZM25.93 11.17L25.93 6.92L25.93 6.92Q25.73 6.86 25.40 6.81L25.40 6.81L25.40 6.81Q25.07 6.76 24.51 6.76L24.51 6.76L24.51 6.76Q23.46 6.76 22.90 7.45L22.90 7.45L22.90 7.45Q22.33 8.13 22.33 9.27L22.33 9.27L22.33 9.27Q22.33 9.90 22.49 10.35L22.49 10.35L22.49 10.35Q22.65 10.79 22.93 11.09L22.93 11.09L22.93 11.09Q23.20 11.38 23.56 11.52L23.56 11.52L23.56 11.52Q23.91 11.66 24.29 11.66L24.29 11.66L24.29 11.66Q24.81 11.66 25.24 11.52L25.24 11.52L25.24 11.52Q25.68 11.37 25.93 11.17L25.93 11.17ZM30.77 5.77L30.77 13.05L29.47 13.05L29.47 5.77L30.77 5.77ZM30.11 4.45L30.11 4.45L30.11 4.45Q29.76 4.45 29.52 4.22L29.52 4.22L29.52 4.22Q29.27 3.99 29.27 3.60L29.27 3.60L29.27 3.60Q29.27 3.21 29.52 2.97L29.52 2.97L29.52 2.97Q29.76 2.74 30.11 2.74L30.11 2.74L30.11 2.74Q30.46 2.74 30.71 2.97L30.71 2.97L30.71 2.97Q30.95 3.21 30.95 3.60L30.95 3.60L30.95 3.60Q30.95 3.99 30.71 4.22L30.71 4.22L30.71 4.22Q30.46 4.45 30.11 4.45ZM34.31 13.05L33.01 13.05L33.01 2.41L34.31 2.18L34.31 5.91L34.31 5.91Q34.68 5.77 35.09 5.69L35.09 5.69L35.09 5.69Q35.50 5.61 35.91 5.61L35.91 5.61L35.91 5.61Q36.78 5.61 37.35 5.86L37.35 5.86L37.35 5.86Q37.93 6.10 38.27 6.54L38.27 6.54L38.27 6.54Q38.61 6.99 38.75 7.60L38.75 7.60L38.75 7.60Q38.89 8.22 38.89 8.96L38.89 8.96L38.89 13.05L37.59 13.05L37.59 9.24L37.59 9.24Q37.59 8.57 37.50 8.09L37.50 8.09L37.50 8.09Q37.41 7.62 37.20 7.32L37.20 7.32L37.20 7.32Q36.99 7.03 36.64 6.89L36.64 6.89L36.64 6.89Q36.29 6.76 35.77 6.76L35.77 6.76L35.77 6.76Q35.56 6.76 35.34 6.79L35.34 6.79L35.34 6.79Q35.11 6.82 34.91 6.85L34.91 6.85L34.91 6.85Q34.71 6.89 34.55 6.93L34.55 6.93L34.55 6.93Q34.38 6.97 34.31 7L34.31 7L34.31 13.05ZM40.60 9.42L40.60 9.42L40.60 9.42Q40.60 8.46 40.88 7.74L40.88 7.74L40.88 7.74Q41.16 7.01 41.62 6.54L41.62 6.54L41.62 6.54Q42.08 6.06 42.69 5.82L42.69 5.82L42.69 5.82Q43.29 5.59 43.92 5.59L43.92 5.59L43.92 5.59Q45.39 5.59 46.17 6.50L46.17 6.50L46.17 6.50Q46.96 7.42 46.96 9.30L46.96 9.30L46.96 9.30Q46.96 9.38 46.96 9.51L46.96 9.51L46.96 9.51Q46.96 9.65 46.94 9.76L46.94 9.76L41.96 9.76L41.96 9.76Q42.04 10.89 42.62 11.48L42.62 11.48L42.62 11.48Q43.19 12.07 44.41 12.07L44.41 12.07L44.41 12.07Q45.09 12.07 45.56 11.95L45.56 11.95L45.56 11.95Q46.03 11.83 46.27 11.72L46.27 11.72L46.45 12.81L46.45 12.81Q46.21 12.94 45.62 13.08L45.62 13.08L45.62 13.08Q45.02 13.22 44.27 13.22L44.27 13.22L44.27 13.22Q43.32 13.22 42.62 12.93L42.62 12.93L42.62 12.93Q41.93 12.64 41.48 12.14L41.48 12.14L41.48 12.14Q41.03 11.63 40.82 10.94L40.82 10.94L40.82 10.94Q40.60 10.25 40.60 9.42ZM41.99 8.71L45.60 8.71L45.60 8.71Q45.61 7.83 45.16 7.26L45.16 7.26L45.16 7.26Q44.70 6.69 43.90 6.69L43.90 6.69L43.90 6.69Q43.46 6.69 43.11 6.87L43.11 6.87L43.11 6.87Q42.77 7.04 42.53 7.32L42.53 7.32L42.53 7.32Q42.29 7.60 42.16 7.97L42.16 7.97L42.16 7.97Q42.03 8.33 41.99 8.71L41.99 8.71ZM50.53 12.11L50.53 12.11L50.53 12.11Q51.32 12.11 51.71 11.90L51.71 11.90L51.71 11.90Q52.09 11.69 52.09 11.23L52.09 11.23L52.09 11.23Q52.09 10.75 51.72 10.47L51.72 10.47L51.72 10.47Q51.34 10.19 50.47 9.84L50.47 9.84L50.47 9.84Q50.05 9.67 49.67 9.50L49.67 9.50L49.67 9.50Q49.28 9.32 49 9.09L49 9.09L49 9.09Q48.72 8.85 48.55 8.51L48.55 8.51L48.55 8.51Q48.38 8.18 48.38 7.69L48.38 7.69L48.38 7.69Q48.38 6.72 49.10 6.15L49.10 6.15L49.10 6.15Q49.81 5.59 51.04 5.59L51.04 5.59L51.04 5.59Q51.35 5.59 51.66 5.62L51.66 5.62L51.66 5.62Q51.97 5.66 52.23 5.71L52.23 5.71L52.23 5.71Q52.50 5.75 52.70 5.81L52.70 5.81L52.70 5.81Q52.91 5.87 53.02 5.91L53.02 5.91L52.78 7.03L52.78 7.03Q52.57 6.92 52.12 6.80L52.12 6.80L52.12 6.80Q51.67 6.68 51.04 6.68L51.04 6.68L51.04 6.68Q50.50 6.68 50.09 6.89L50.09 6.89L50.09 6.89Q49.69 7.11 49.69 7.57L49.69 7.57L49.69 7.57Q49.69 7.81 49.78 7.99L49.78 7.99L49.78 7.99Q49.87 8.18 50.06 8.32L50.06 8.32L50.06 8.32Q50.25 8.47 50.53 8.60L50.53 8.60L50.53 8.60Q50.81 8.72 51.20 8.86L51.20 8.86L51.20 8.86Q51.72 9.06 52.12 9.25L52.12 9.25L52.12 9.25Q52.53 9.44 52.82 9.69L52.82 9.69L52.82 9.69Q53.10 9.94 53.26 10.30L53.26 10.30L53.26 10.30Q53.41 10.65 53.41 11.17L53.41 11.17L53.41 11.17Q53.41 12.18 52.66 12.70L52.66 12.70L52.66 12.70Q51.91 13.22 50.53 13.22L50.53 13.22L50.53 13.22Q49.56 13.22 49.01 13.05L49.01 13.05L49.01 13.05Q48.47 12.89 48.27 12.81L48.27 12.81L48.51 11.69L48.51 11.69Q48.73 11.77 49.22 11.94L49.22 11.94L49.22 11.94Q49.71 12.11 50.53 12.11ZM57.54 12.11L57.54 12.11L57.54 12.11Q58.00 12.11 58.36 12.09L58.36 12.09L58.36 12.09Q58.72 12.07 58.95 12.01L58.95 12.01L58.95 9.84L58.95 9.84Q58.81 9.77 58.50 9.72L58.50 9.72L58.50 9.72Q58.18 9.67 57.74 9.67L57.74 9.67L57.74 9.67Q57.44 9.67 57.11 9.72L57.11 9.72L57.11 9.72Q56.78 9.76 56.51 9.89L56.51 9.89L56.51 9.89Q56.24 10.02 56.06 10.25L56.06 10.25L56.06 10.25Q55.87 10.49 55.87 10.86L55.87 10.86L55.87 10.86Q55.87 11.56 56.32 11.84L56.32 11.84L56.32 11.84Q56.77 12.11 57.54 12.11ZM57.43 5.59L57.43 5.59L57.43 5.59Q58.21 5.59 58.75 5.79L58.75 5.79L58.75 5.79Q59.29 5.99 59.62 6.36L59.62 6.36L59.62 6.36Q59.95 6.73 60.09 7.25L60.09 7.25L60.09 7.25Q60.23 7.76 60.23 8.37L60.23 8.37L60.23 12.92L60.23 12.92Q60.06 12.95 59.76 13.00L59.76 13.00L59.76 13.00Q59.46 13.05 59.08 13.09L59.08 13.09L59.08 13.09Q58.70 13.13 58.26 13.17L58.26 13.17L58.26 13.17Q57.82 13.20 57.39 13.20L57.39 13.20L57.39 13.20Q56.77 13.20 56.25 13.08L56.25 13.08L56.25 13.08Q55.73 12.95 55.36 12.68L55.36 12.68L55.36 12.68Q54.98 12.40 54.77 11.96L54.77 11.96L54.77 11.96Q54.56 11.51 54.56 10.88L54.56 10.88L54.56 10.88Q54.56 10.28 54.80 9.84L54.80 9.84L54.80 9.84Q55.05 9.41 55.47 9.14L55.47 9.14L55.47 9.14Q55.89 8.88 56.45 8.75L56.45 8.75L56.45 8.75Q57.01 8.62 57.62 8.62L57.62 8.62L57.62 8.62Q57.82 8.62 58.03 8.64L58.03 8.64L58.03 8.64Q58.24 8.67 58.43 8.70L58.43 8.70L58.43 8.70Q58.62 8.74 58.76 8.76L58.76 8.76L58.76 8.76Q58.90 8.79 58.95 8.81L58.95 8.81L58.95 8.44L58.95 8.44Q58.95 8.12 58.88 7.80L58.88 7.80L58.88 7.80Q58.81 7.49 58.63 7.25L58.63 7.25L58.63 7.25Q58.45 7 58.14 6.85L58.14 6.85L58.14 6.85Q57.82 6.71 57.32 6.71L57.32 6.71L57.32 6.71Q56.67 6.71 56.19 6.80L56.19 6.80L56.19 6.80Q55.71 6.89 55.47 6.99L55.47 6.99L55.31 5.91L55.31 5.91Q55.57 5.80 56.15 5.69L56.15 5.69L56.15 5.69Q56.74 5.59 57.43 5.59ZM67.44 9.42L67.44 9.42L67.44 9.42Q67.44 8.15 66.81 7.46L66.81 7.46L66.81 7.46Q66.18 6.78 65.13 6.78L65.13 6.78L65.13 6.78Q64.54 6.78 64.21 6.82L64.21 6.82L64.21 6.82Q63.88 6.86 63.69 6.92L63.69 6.92L63.69 11.51L63.69 11.51Q63.92 11.70 64.37 11.89L64.37 11.89L64.37 11.89Q64.82 12.07 65.35 12.07L65.35 12.07L65.35 12.07Q65.91 12.07 66.31 11.87L66.31 11.87L66.31 11.87Q66.71 11.66 66.96 11.30L66.96 11.30L66.96 11.30Q67.21 10.95 67.33 10.46L67.33 10.46L67.33 10.46Q67.44 9.98 67.44 9.42ZM68.80 9.42L68.80 9.42L68.80 9.42Q68.80 10.25 68.58 10.95L68.58 10.95L68.58 10.95Q68.36 11.65 67.94 12.15L67.94 12.15L67.94 12.15Q67.52 12.66 66.91 12.94L66.91 12.94L66.91 12.94Q66.30 13.22 65.52 13.22L65.52 13.22L65.52 13.22Q64.89 13.22 64.41 13.05L64.41 13.05L64.41 13.05Q63.92 12.88 63.69 12.73L63.69 12.73L63.69 15.64L62.38 15.64L62.38 5.99L62.38 5.99Q62.85 5.88 63.54 5.75L63.54 5.75L63.54 5.75Q64.23 5.61 65.14 5.61L65.14 5.61L65.14 5.61Q65.98 5.61 66.65 5.88L66.65 5.88L66.65 5.88Q67.33 6.15 67.80 6.64L67.80 6.64L67.80 6.64Q68.28 7.13 68.54 7.83L68.54 7.83L68.54 7.83Q68.80 8.54 68.80 9.42ZM73.00 12.10L72.81 13.19L72.81 13.19Q71.61 13.16 71.11 12.67L71.11 12.67L71.11 12.67Q70.60 12.18 70.60 11.14L70.60 11.14L70.60 2.41L71.90 2.18L71.90 10.93L71.90 10.93Q71.90 11.26 71.96 11.47L71.96 11.47L71.96 11.47Q72.02 11.68 72.14 11.80L72.14 11.80L72.14 11.80Q72.27 11.93 72.48 11.99L72.48 11.99L72.48 11.99Q72.69 12.05 73.00 12.10L73.00 12.10ZM76.92 12.11L76.92 12.11L76.92 12.11Q77.38 12.11 77.74 12.09L77.74 12.09L77.74 12.09Q78.09 12.07 78.33 12.01L78.33 12.01L78.33 9.84L78.33 9.84Q78.19 9.77 77.88 9.72L77.88 9.72L77.88 9.72Q77.56 9.67 77.11 9.67L77.11 9.67L77.11 9.67Q76.82 9.67 76.49 9.72L76.49 9.72L76.49 9.72Q76.16 9.76 75.89 9.89L75.89 9.89L75.89 9.89Q75.61 10.02 75.43 10.25L75.43 10.25L75.43 10.25Q75.25 10.49 75.25 10.86L75.25 10.86L75.25 10.86Q75.25 11.56 75.70 11.84L75.70 11.84L75.70 11.84Q76.15 12.11 76.92 12.11ZM76.80 5.59L76.80 5.59L76.80 5.59Q77.59 5.59 78.13 5.79L78.13 5.79L78.13 5.79Q78.67 5.99 79.00 6.36L79.00 6.36L79.00 6.36Q79.32 6.73 79.46 7.25L79.46 7.25L79.46 7.25Q79.60 7.76 79.60 8.37L79.60 8.37L79.60 12.92L79.60 12.92Q79.44 12.95 79.14 13.00L79.14 13.00L79.14 13.00Q78.83 13.05 78.46 13.09L78.46 13.09L78.46 13.09Q78.08 13.13 77.64 13.17L77.64 13.17L77.64 13.17Q77.20 13.20 76.76 13.20L76.76 13.20L76.76 13.20Q76.15 13.20 75.63 13.08L75.63 13.08L75.63 13.08Q75.11 12.95 74.73 12.68L74.73 12.68L74.73 12.68Q74.35 12.40 74.14 11.96L74.14 11.96L74.14 11.96Q73.93 11.51 73.93 10.88L73.93 10.88L73.93 10.88Q73.93 10.28 74.18 9.84L74.18 9.84L74.18 9.84Q74.42 9.41 74.84 9.14L74.84 9.14L74.84 9.14Q75.26 8.88 75.82 8.75L75.82 8.75L75.82 8.75Q76.38 8.62 77.00 8.62L77.00 8.62L77.00 8.62Q77.20 8.62 77.41 8.64L77.41 8.64L77.41 8.64Q77.62 8.67 77.81 8.70L77.81 8.70L77.81 8.70Q77.99 8.74 78.13 8.76L78.13 8.76L78.13 8.76Q78.27 8.79 78.33 8.81L78.33 8.81L78.33 8.44L78.33 8.44Q78.33 8.12 78.26 7.80L78.26 7.80L78.26 7.80Q78.19 7.49 78.01 7.25L78.01 7.25L78.01 7.25Q77.83 7 77.51 6.85L77.51 6.85L77.51 6.85Q77.20 6.71 76.69 6.71L76.69 6.71L76.69 6.71Q76.05 6.71 75.57 6.80L75.57 6.80L75.57 6.80Q75.08 6.89 74.84 6.99L74.84 6.99L74.69 5.91L74.69 5.91Q74.94 5.80 75.53 5.69L75.53 5.69L75.53 5.69Q76.12 5.59 76.80 5.59ZM80.67 15.46L80.91 14.41L80.91 14.41Q81.06 14.48 81.31 14.54L81.31 14.54L81.31 14.54Q81.55 14.60 81.79 14.60L81.79 14.60L81.79 14.60Q82.56 14.60 82.99 14.26L82.99 14.26L82.99 14.26Q83.43 13.92 83.78 13.15L83.78 13.15L83.78 13.15Q82.89 11.47 82.13 9.58L82.13 9.58L82.13 9.58Q81.37 7.70 80.86 5.77L80.86 5.77L82.26 5.77L82.26 5.77Q82.42 6.40 82.64 7.13L82.64 7.13L82.64 7.13Q82.85 7.85 83.12 8.62L83.12 8.62L83.12 8.62Q83.38 9.39 83.69 10.16L83.69 10.16L83.69 10.16Q84.00 10.93 84.34 11.65L84.34 11.65L84.34 11.65Q84.87 10.18 85.26 8.74L85.26 8.74L85.26 8.74Q85.65 7.29 86.00 5.77L86.00 5.77L87.35 5.77L87.35 5.77Q86.84 7.83 86.23 9.72L86.23 9.72L86.23 9.72Q85.61 11.62 84.90 13.27L84.90 13.27L84.90 13.27Q84.62 13.90 84.32 14.36L84.32 14.36L84.32 14.36Q84.01 14.81 83.65 15.11L83.65 15.11L83.65 15.11Q83.29 15.40 82.83 15.54L82.83 15.54L82.83 15.54Q82.38 15.68 81.80 15.68L81.80 15.68L81.80 15.68Q81.65 15.68 81.48 15.66L81.48 15.66L81.48 15.66Q81.31 15.64 81.15 15.60L81.15 15.60L81.15 15.60Q80.99 15.57 80.86 15.53L80.86 15.53L80.86 15.53Q80.72 15.48 80.67 15.46L80.67 15.46ZM90.02 5.77L90.02 13.05L88.72 13.05L88.72 5.77L90.02 5.77ZM89.36 4.45L89.36 4.45L89.36 4.45Q89.01 4.45 88.77 4.22L88.77 4.22L88.77 4.22Q88.52 3.99 88.52 3.60L88.52 3.60L88.52 3.60Q88.52 3.21 88.77 2.97L88.77 2.97L88.77 2.97Q89.01 2.74 89.36 2.74L89.36 2.74L89.36 2.74Q89.71 2.74 89.96 2.97L89.96 2.97L89.96 2.97Q90.20 3.21 90.20 3.60L90.20 3.60L90.20 3.60Q90.20 3.99 89.96 4.22L89.96 4.22L89.96 4.22Q89.71 4.45 89.36 4.45ZM95.42 13.22L95.42 13.22L95.42 13.22Q94.54 13.22 93.88 12.94L93.88 12.94L93.88 12.94Q93.21 12.66 92.76 12.15L92.76 12.15L92.76 12.15Q92.30 11.65 92.08 10.96L92.08 10.96L92.08 10.96Q91.85 10.26 91.85 9.42L91.85 9.42L91.85 9.42Q91.85 8.58 92.10 7.88L92.10 7.88L92.10 7.88Q92.34 7.18 92.79 6.67L92.79 6.67L92.79 6.67Q93.24 6.16 93.89 5.87L93.89 5.87L93.89 5.87Q94.54 5.59 95.34 5.59L95.34 5.59L95.34 5.59Q95.83 5.59 96.32 5.67L96.32 5.67L96.32 5.67Q96.81 5.75 97.26 5.94L97.26 5.94L96.96 7.04L96.96 7.04Q96.67 6.90 96.29 6.82L96.29 6.82L96.29 6.82Q95.90 6.73 95.47 6.73L95.47 6.73L95.47 6.73Q94.37 6.73 93.79 7.42L93.79 7.42L93.79 7.42Q93.21 8.11 93.21 9.42L93.21 9.42L93.21 9.42Q93.21 10.01 93.35 10.50L93.35 10.50L93.35 10.50Q93.48 10.99 93.77 11.34L93.77 11.34L93.77 11.34Q94.05 11.69 94.50 11.88L94.50 11.88L94.50 11.88Q94.95 12.07 95.59 12.07L95.59 12.07L95.59 12.07Q96.11 12.07 96.53 11.97L96.53 11.97L96.53 11.97Q96.95 11.87 97.19 11.76L97.19 11.76L97.37 12.85L97.37 12.85Q97.26 12.92 97.05 12.98L97.05 12.98L97.05 12.98Q96.84 13.05 96.57 13.10L96.57 13.10L96.57 13.10Q96.31 13.15 96.01 13.18L96.01 13.18L96.01 13.18Q95.70 13.22 95.42 13.22ZM100.07 5.77L100.07 13.05L98.77 13.05L98.77 5.77L100.07 5.77ZM99.41 4.45L99.41 4.45L99.41 4.45Q99.06 4.45 98.82 4.22L98.82 4.22L98.82 4.22Q98.57 3.99 98.57 3.60L98.57 3.60L98.57 3.60Q98.57 3.21 98.82 2.97L98.82 2.97L98.82 2.97Q99.06 2.74 99.41 2.74L99.41 2.74L99.41 2.74Q99.76 2.74 100.01 2.97L100.01 2.97L100.01 2.97Q100.25 3.21 100.25 3.60L100.25 3.60L100.25 3.60Q100.25 3.99 100.01 4.22L100.01 4.22L100.01 4.22Q99.76 4.45 99.41 4.45ZM103.85 12.29L103.85 12.29L103.85 12.29Q103.85 12.67 103.60 12.95L103.60 12.95L103.60 12.95Q103.35 13.23 102.91 13.23L102.91 13.23L102.91 13.23Q102.48 13.23 102.23 12.95L102.23 12.95L102.23 12.95Q101.98 12.67 101.98 12.29L101.98 12.29L101.98 12.29Q101.98 11.91 102.23 11.63L102.23 11.63L102.23 11.63Q102.48 11.35 102.91 11.35L102.91 11.35L102.91 11.35Q103.35 11.35 103.60 11.63L103.60 11.63L103.60 11.63Q103.85 11.91 103.85 12.29ZM108.92 13.22L108.92 13.22L108.92 13.22Q108.04 13.22 107.37 12.94L107.37 12.94L107.37 12.94Q106.71 12.66 106.25 12.15L106.25 12.15L106.25 12.15Q105.80 11.65 105.57 10.96L105.57 10.96L105.57 10.96Q105.35 10.26 105.35 9.42L105.35 9.42L105.35 9.42Q105.35 8.58 105.60 7.88L105.60 7.88L105.60 7.88Q105.84 7.18 106.29 6.67L106.29 6.67L106.29 6.67Q106.74 6.16 107.39 5.87L107.39 5.87L107.39 5.87Q108.04 5.59 108.84 5.59L108.84 5.59L108.84 5.59Q109.33 5.59 109.82 5.67L109.82 5.67L109.82 5.67Q110.31 5.75 110.75 5.94L110.75 5.94L110.46 7.04L110.46 7.04Q110.17 6.90 109.78 6.82L109.78 6.82L109.78 6.82Q109.40 6.73 108.96 6.73L108.96 6.73L108.96 6.73Q107.87 6.73 107.29 7.42L107.29 7.42L107.29 7.42Q106.71 8.11 106.71 9.42L106.71 9.42L106.71 9.42Q106.71 10.01 106.84 10.50L106.84 10.50L106.84 10.50Q106.97 10.99 107.26 11.34L107.26 11.34L107.26 11.34Q107.55 11.69 108.00 11.88L108.00 11.88L108.00 11.88Q108.44 12.07 109.09 12.07L109.09 12.07L109.09 12.07Q109.61 12.07 110.03 11.97L110.03 11.97L110.03 11.97Q110.45 11.87 110.68 11.76L110.68 11.76L110.87 12.85L110.87 12.85Q110.75 12.92 110.54 12.98L110.54 12.98L110.54 12.98Q110.33 13.05 110.07 13.10L110.07 13.10L110.07 13.10Q109.80 13.15 109.50 13.18L109.50 13.18L109.50 13.18Q109.20 13.22 108.92 13.22ZM118.69 9.41L118.69 9.41L118.69 9.41Q118.69 10.28 118.44 10.98L118.44 10.98L118.44 10.98Q118.19 11.68 117.73 12.18L117.73 12.18L117.73 12.18Q117.28 12.68 116.65 12.96L116.65 12.96L116.65 12.96Q116.02 13.23 115.28 13.23L115.28 13.23L115.28 13.23Q114.53 13.23 113.90 12.96L113.90 12.96L113.90 12.96Q113.27 12.68 112.82 12.18L112.82 12.18L112.82 12.18Q112.36 11.68 112.11 10.98L112.11 10.98L112.11 10.98Q111.86 10.28 111.86 9.41L111.86 9.41L111.86 9.41Q111.86 8.55 112.11 7.85L112.11 7.85L112.11 7.85Q112.36 7.14 112.82 6.64L112.82 6.64L112.82 6.64Q113.27 6.13 113.90 5.86L113.90 5.86L113.90 5.86Q114.53 5.59 115.28 5.59L115.28 5.59L115.28 5.59Q116.02 5.59 116.65 5.86L116.65 5.86L116.65 5.86Q117.28 6.13 117.73 6.64L117.73 6.64L117.73 6.64Q118.19 7.14 118.44 7.85L118.44 7.85L118.44 7.85Q118.69 8.55 118.69 9.41ZM117.33 9.41L117.33 9.41L117.33 9.41Q117.33 8.18 116.78 7.46L116.78 7.46L116.78 7.46Q116.23 6.73 115.28 6.73L115.28 6.73L115.28 6.73Q114.32 6.73 113.77 7.46L113.77 7.46L113.77 7.46Q113.22 8.18 113.22 9.41L113.22 9.41L113.22 9.41Q113.22 10.64 113.77 11.36L113.77 11.36L113.77 11.36Q114.32 12.08 115.28 12.08L115.28 12.08L115.28 12.08Q116.23 12.08 116.78 11.36L116.78 11.36L116.78 11.36Q117.33 10.64 117.33 9.41ZM120.53 13.05L120.53 5.98L120.53 5.98Q120.97 5.87 121.71 5.74L121.71 5.74L121.71 5.74Q122.44 5.61 123.41 5.61L123.41 5.61L123.41 5.61Q124.11 5.61 124.59 5.80L124.59 5.80L124.59 5.80Q125.06 5.99 125.38 6.36L125.38 6.36L125.38 6.36Q125.48 6.29 125.69 6.16L125.69 6.16L125.69 6.16Q125.90 6.03 126.21 5.92L126.21 5.92L126.21 5.92Q126.52 5.80 126.90 5.71L126.90 5.71L126.90 5.71Q127.27 5.61 127.71 5.61L127.71 5.61L127.71 5.61Q128.55 5.61 129.08 5.86L129.08 5.86L129.08 5.86Q129.61 6.10 129.91 6.55L129.91 6.55L129.91 6.55Q130.21 7 130.32 7.62L130.32 7.62L130.32 7.62Q130.42 8.23 130.42 8.96L130.42 8.96L130.42 13.05L129.12 13.05L129.12 9.24L129.12 9.24Q129.12 8.60 129.06 8.13L129.06 8.13L129.06 8.13Q129.00 7.67 128.82 7.36L128.82 7.36L128.82 7.36Q128.65 7.06 128.35 6.91L128.35 6.91L128.35 6.91Q128.04 6.76 127.57 6.76L127.57 6.76L127.57 6.76Q126.91 6.76 126.48 6.94L126.48 6.94L126.48 6.94Q126.06 7.11 125.90 7.25L125.90 7.25L125.90 7.25Q126.01 7.62 126.07 8.05L126.07 8.05L126.07 8.05Q126.13 8.48 126.13 8.96L126.13 8.96L126.13 13.05L124.82 13.05L124.82 9.24L124.82 9.24Q124.82 8.60 124.75 8.13L124.75 8.13L124.75 8.13Q124.68 7.67 124.51 7.36L124.51 7.36L124.51 7.36Q124.33 7.06 124.03 6.91L124.03 6.91L124.03 6.91Q123.73 6.76 123.27 6.76L123.27 6.76L123.27 6.76Q123.07 6.76 122.85 6.78L122.85 6.78L122.85 6.78Q122.63 6.79 122.42 6.81L122.42 6.81L122.42 6.81Q122.22 6.83 122.05 6.86L122.05 6.86L122.05 6.86Q121.88 6.89 121.83 6.90L121.83 6.90L121.83 13.05L120.53 13.05Z"></path></g><!----><g data-v-423bf9ae="" id="ce514d02-85f2-47a9-9a58-bb4775b54653" transform="matrix(1.0000322988133619,0,0,1.0000322988133619,-5.002455659147998,-4.000151381035607)" stroke="none" fill="white"><path d="M93.882 43.357c2.36-4.222 1.463-7.568-2.692-10.043-4.156-2.474-6.269-6.128-6.332-10.968-.062-4.834-2.516-7.285-7.352-7.351-4.837-.063-8.495-2.175-10.973-6.333-2.464-4.155-5.819-5.053-10.038-2.691-4.221 2.362-8.442 2.364-12.662 0-4.222-2.363-7.57-1.464-10.041 2.691-2.475 4.157-6.13 6.269-10.968 6.333-4.838.064-7.287 2.516-7.354 7.351-.064 4.838-2.174 8.494-6.33 10.968-4.157 2.476-5.056 5.822-2.692 10.043 2.366 4.219 2.366 8.442 0 12.663-2.364 4.218-1.465 7.567 2.692 10.04 4.156 2.474 6.265 6.129 6.33 10.964.064 4.838 2.515 7.293 7.354 7.357 4.837.061 8.493 2.173 10.968 6.328 2.471 4.157 5.819 5.052 10.041 2.692 4.22-2.363 8.441-2.363 12.662 0 4.219 2.359 7.572 1.465 10.038-2.692 2.478-4.155 6.136-6.268 10.973-6.328 4.836-.064 7.29-2.52 7.352-7.357.063-4.835 2.176-8.49 6.332-10.964 4.155-2.473 5.053-5.822 2.692-10.04-2.367-4.221-2.367-8.444 0-12.663zm-67.653-5.31a8.435 8.435 0 0 1 8.442-8.445 8.441 8.441 0 0 1 8.45 8.445c0 4.666-3.782 8.441-8.45 8.441a8.438 8.438 0 0 1-8.442-8.441zm10.318 37.129a2.59 2.59 0 0 1-2.18 1.18c-.5 0-.99-.137-1.438-.426a2.615 2.615 0 0 1-.748-3.617l31.588-48.111a2.603 2.603 0 0 1 3.617-.758 2.615 2.615 0 0 1 .748 3.618L36.547 75.176zm29.099-5.4a8.45 8.45 0 0 1 0-16.897 8.453 8.453 0 0 1 8.452 8.452c.001 4.663-3.788 8.445-8.452 8.445z"></path></g><!----></svg>