<svg data-v-423bf9ae="" xmlns="http://www.w3.org/2000/svg" viewBox="0 0 60 60" class="icon"><!----><!----><!----><!----><g data-v-423bf9ae="" id="d410aff0-a34f-482e-8694-a2971747586c" transform="matrix(0.6666666666666666,0,0,0.6666666666666666,-3.399998664855957,-3.666666348775223)" stroke="none" fill="black"><path d="M38 74.9c-.3 0-.5-.1-.8-.2-.8-.4-1-1.4-.6-2.2L62.3 27c.4-.8 1.4-1 2.2-.6.8.4 1 1.4.6 2.2L39.4 74.1c-.3.5-.8.8-1.4.8zM35.5 55.3c-5.7 0-10.3-5.8-10.3-12.8 0-7.1 4.6-12.8 10.3-12.8s10.3 5.8 10.3 12.8c0 7.1-4.6 12.8-10.3 12.8zm0-22.4c-3.9 0-7.1 4.3-7.1 9.6s3.2 9.6 7.1 9.6 7.1-4.3 7.1-9.6-3.2-9.6-7.1-9.6zM65.2 71.4c-5.7 0-10.3-5.8-10.3-12.8s4.6-12.8 10.3-12.8c5.7 0 10.3 5.8 10.3 12.8s-4.6 12.8-10.3 12.8zm0-22.5c-3.9 0-7.1 4.3-7.1 9.6s3.2 9.6 7.1 9.6c3.9 0 7.1-4.3 7.1-9.6s-3.2-9.6-7.1-9.6z"></path><path d="M50.1 95.5c-4.9 0-9.5-2.2-12.5-6.2-1.4-1.8-3.8-2.8-6.4-2.5-.6.1-1.2.1-1.8.1-4.2 0-8.1-1.6-11.1-4.6-3.4-3.4-5.1-8.1-4.5-12.9.3-2.5-.7-5-2.5-6.4-3.9-3-6.2-7.6-6.2-12.5S7.3 41 11.3 38c1.8-1.4 2.8-3.9 2.5-6.4-.6-4.8 1.1-9.5 4.5-12.9 3-3 6.9-4.6 11.1-4.6.6 0 1.2 0 1.8.1 2.5.3 5-.7 6.4-2.5 3-3.9 7.6-6.2 12.5-6.2s9.5 2.2 12.5 6.2c1.4 1.8 3.8 2.8 6.4 2.5.6-.1 1.2-.1 1.8-.1 4.2 0 8.1 1.6 11.1 4.6 3.4 3.4 5.1 8.1 4.5 12.9-.3 2.5.7 5 2.5 6.4 3.9 3 6.2 7.6 6.2 12.5S92.9 60 88.9 63c-1.8 1.4-2.8 3.9-2.5 6.4.6 4.8-1.1 9.5-4.5 12.9-3 3-6.9 4.6-11.1 4.6-.6 0-1.2 0-1.8-.1-2.5-.3-5 .7-6.4 2.5-3 4-7.6 6.2-12.5 6.2zm-18-11.9c3.2 0 6.2 1.4 8 3.8 2.4 3.1 6 4.9 9.9 4.9s7.5-1.8 9.9-4.9c1.9-2.4 4.8-3.8 8-3.8.4 0 .9 0 1.3.1.5.1 1 .1 1.5.1 3.3 0 6.5-1.3 8.8-3.7 2.7-2.7 4-6.5 3.6-10.3-.4-3.6 1-7.2 3.7-9.3 3.1-2.4 4.9-6 4.9-9.9 0-3.9-1.8-7.5-4.9-9.9-2.7-2.1-4.2-5.7-3.7-9.3.4-3.8-.9-7.6-3.6-10.3-2.7-2.7-6.5-4-10.3-3.6-.4 0-.8.1-1.3.1-3.2 0-6.2-1.4-8-3.8-2.4-3.1-6-4.9-9.9-4.9s-7.5 1.8-9.9 4.9c-1.9 2.4-4.8 3.8-8 3.8-.4 0-.9 0-1.3-.1-.5-.1-1-.1-1.5-.1-3.3 0-6.5 1.3-8.8 3.7-2.7 2.7-4 6.5-3.6 10.3.4 3.6-1 7.2-3.7 9.3-3.1 2.4-4.9 6-4.9 9.9s1.8 7.6 4.9 9.9c2.7 2.1 4.2 5.7 3.7 9.3-.4 3.8.9 7.6 3.6 10.3 2.4 2.4 5.5 3.7 8.8 3.7.5 0 1 0 1.5-.1s.9-.1 1.3-.1z"></path><path d="M50.1 95.5c-4.9 0-9.5-2.2-12.5-6.2-1.4-1.8-3.8-2.8-6.4-2.5-.6.1-1.2.1-1.8.1-4.2 0-8.1-1.6-11.1-4.6-3.4-3.4-5.1-8.1-4.5-12.9.3-2.5-.7-5-2.5-6.4-3.9-3-6.2-7.6-6.2-12.5S7.3 41 11.3 38c1.8-1.4 2.8-3.9 2.5-6.4-.6-4.8 1.1-9.5 4.5-12.9 3-3 6.9-4.6 11.1-4.6.6 0 1.2 0 1.8.1 2.5.3 5-.7 6.4-2.5 3-3.9 7.6-6.2 12.5-6.2s9.5 2.2 12.5 6.2c1.4 1.8 3.8 2.8 6.4 2.5.6-.1 1.2-.1 1.8-.1 4.2 0 8.1 1.6 11.1 4.6 3.4 3.4 5.1 8.1 4.5 12.9-.3 2.5.7 5 2.5 6.4 3.9 3 6.2 7.6 6.2 12.5S92.9 60 88.9 63c-1.8 1.4-2.8 3.9-2.5 6.4.6 4.8-1.1 9.5-4.5 12.9-3 3-6.9 4.6-11.1 4.6-.6 0-1.2 0-1.8-.1-2.5-.3-5 .7-6.4 2.5-3 4-7.6 6.2-12.5 6.2zm-18-11.9c3.2 0 6.2 1.4 8 3.8 2.4 3.1 6 4.9 9.9 4.9s7.5-1.8 9.9-4.9c1.9-2.4 4.8-3.8 8-3.8.4 0 .9 0 1.3.1.5.1 1 .1 1.5.1 3.3 0 6.5-1.3 8.8-3.7 2.7-2.7 4-6.5 3.6-10.3-.4-3.6 1-7.2 3.7-9.3 3.1-2.4 4.9-6 4.9-9.9 0-3.9-1.8-7.5-4.9-9.9-2.7-2.1-4.2-5.7-3.7-9.3.4-3.8-.9-7.6-3.6-10.3-2.7-2.7-6.5-4-10.3-3.6-.4 0-.8.1-1.3.1-3.2 0-6.2-1.4-8-3.8-2.4-3.1-6-4.9-9.9-4.9s-7.5 1.8-9.9 4.9c-1.9 2.4-4.8 3.8-8 3.8-.4 0-.9 0-1.3-.1-.5-.1-1-.1-1.5-.1-3.3 0-6.5 1.3-8.8 3.7-2.7 2.7-4 6.5-3.6 10.3.4 3.6-1 7.2-3.7 9.3-3.1 2.4-4.9 6-4.9 9.9s1.8 7.6 4.9 9.9c2.7 2.1 4.2 5.7 3.7 9.3-.4 3.8.9 7.6 3.6 10.3 2.4 2.4 5.5 3.7 8.8 3.7.5 0 1 0 1.5-.1s.9-.1 1.3-.1z"></path></g><!----></svg>