<svg xmlns="http://www.w3.org/2000/svg" fill="#000" viewBox="0 0 90 90"><path d="m45 0c-4.9 0-9.5 2.2992-12.5 6.1992-1.4 1.8-3.9004 2.8-6.4004 2.5-0.6-0.1-1.1988-0.099609-1.7988-0.099609-4.2 0-8.0996 1.5996-11.1 4.5996-3.4 3.4-5.1 8.1004-4.5 12.9 0.3 2.5-0.7 5.0004-2.5 6.4004-4 3-6.2012 7.6-6.2012 12.5s2.3012 9.5 6.2012 12.5c1.8 1.4 2.8 3.9004 2.5 6.4004-0.6 4.8 1.1 9.5004 4.5 12.9 3 3 6.8996 4.5996 11.1 4.5996 0.6 0 1.1988 3.9e-4 1.7988-0.09961 2.6-0.3 5.0004 0.7 6.4004 2.5 3 4 7.6 6.1992 12.5 6.1992 0.30625 0 0.61243-0.0083 0.91602-0.02539 3.3395-0.18799 6.498-1.4035 9.0547-3.5176 0.92969-0.76875 1.7793-1.6562 2.5293-2.6562 1.4-1.8 3.9004-2.8 6.4004-2.5 0.6 0.1 1.2008 0.09961 1.8008 0.09961 4.2 0 8.0996-1.5996 11.1-4.5996 3.4-3.4 5.1-8.1004 4.5-12.9-0.3-2.5 0.7-5.0004 2.5-6.4004 4-3 6.1992-7.6 6.1992-12.5s-2.2992-9.5-6.1992-12.5c-1.8-1.4-2.8-3.9004-2.5-6.4004 0.6-4.8-1.1-9.5004-4.5-12.9-3-3-6.8996-4.5996-11.1-4.5996-0.6 0-1.2008-3.906e-4 -1.8008 0.099609-2.6 0.3-5.0004-0.7-6.4004-2.5-3-4-7.6-6.1992-12.5-6.1992zm-0.09961 3.4004c3.9 0 7.5004 1.8004 9.9004 4.9004 0.225 0.3 0.46797 0.58359 0.72852 0.85156 1.8238 1.8758 4.4715 2.9473 7.2715 2.9473 0.5 0 0.89883-0.09961 1.2988-0.09961 3.8-0.4 7.6008 0.89961 10.301 3.5996s3.9996 6.5008 3.5996 10.301c-0.5 3.6 1.0012 7.1988 3.7012 9.2988 3.1 2.4 4.8984 6.0004 4.8984 9.9004s-1.7984 7.5004-4.8984 9.9004c-2.7 2.1-4.1012 5.7008-3.7012 9.3008 0.15 1.425 0.06035 2.8498-0.25195 4.2168-0.52051 2.2783-1.6602 4.3945-3.3477 6.082-1.725 1.8-3.9555 2.9809-6.3555 3.459-0.8 0.15938-1.6203 0.24219-2.4453 0.24219-0.5 0-1-0.0016-1.5-0.10156-0.4-0.1-0.89883-0.09961-1.2988-0.09961s-0.79629 0.02148-1.1855 0.06445c-2.7248 0.30078-5.152 1.6363-6.8145 3.7363-2.1 2.7125-5.1186 4.4295-8.4531 4.8164-0.47637 0.05527-0.95977 0.08398-1.4473 0.08398-3.9 0-7.5004-1.8004-9.9004-4.9004-1.8-2.4-4.8-3.8008-8-3.8008-0.4 0-0.79883-3.9e-4 -1.2988 0.09961s-1 0.10156-1.5 0.10156c-3.3 0-6.4008-1.3012-8.8008-3.7012-2.7-2.7-3.9996-6.4988-3.5996-10.299 0.5-3.6-1.0012-7.2008-3.7012-9.3008-3.1-2.3-4.8984-6.0004-4.8984-9.9004 1e-7 -3.9 1.7984-7.5004 4.8984-9.9004 2.7-2.1 4.1012-5.6988 3.7012-9.2988-0.4-3.8 0.89961-7.6008 3.5996-10.301 1.725-1.8 3.9555-2.9809 6.3555-3.459 0.4-0.07969 0.80508-0.13945 1.2129-0.17969 0.40781-0.04024 0.81992-0.06055 1.2324-0.06055 0.5 0 1-3.91e-4 1.5 0.09961 0.4 0.1 0.89883 0.09961 1.2988 0.09961 3.2 0 6.1-1.3988 8-3.7988 2.4-3.1 6.0004-4.9004 9.9004-4.9004zm13.56 17.303c-0.52344 0.03125-1.0078 0.29688-1.2578 0.79688l-25.701 45.5c-0.4 0.8-0.20039 1.7992 0.59961 2.1992 0.3 0.1 0.50078 0.20117 0.80078 0.20117 0.6 0 1.1004-0.30078 1.4004-0.80078l25.699-45.5c0.4-0.8 0.20039-1.7992-0.59961-2.1992-0.3-0.15-0.62734-0.21602-0.94141-0.19727zm-28.065 3.4961c-5.7 0-10.301 5.7008-10.301 12.801 0 7 4.6008 12.801 10.301 12.801s10.301-5.7008 10.301-12.801c0-7-4.6008-12.801-10.301-12.801zm0 3.2012c3.9 0 7.0996 4.2996 7.0996 9.5996s-3.1996 9.5996-7.0996 9.5996-7.0996-4.2996-7.0996-9.5996 3.1996-9.5996 7.0996-9.5996zm29.696 12.9c-5.7 0-10.299 5.7988-10.299 12.799s4.5988 12.801 10.299 12.801 10.301-5.8008 10.301-12.801-4.6008-12.799-10.301-12.799zm0 3.0996c3.9 0 7.1016 4.2996 7.1016 9.5996s-3.2016 9.5996-7.1016 9.5996-7.0996-4.2996-7.0996-9.5996 3.1996-9.5996 7.0996-9.5996z"/></svg>