<svg xmlns="http://www.w3.org/2000/svg" fill="#fff" viewBox="0 0 24 24"><path d="M19.8 10.3V13l-.7-2.7h-1.3v3.4h.8v-2.8l.8 2.8h1.3v-3.4zm-16.1 0L3 13.7h1l.4-3.1.5 3.1h1l-.7-3.4zm5.1 0-.4 2.6-.4-2.6H6.6v3.4h.8v-3l.6 3h.8l.6-3v3h1l-.2-3.4zm-7.2 2.4v.3c0 .1-.1.2-.3.2-.3 0-.4-.1-.4-.3v-.3H0v.2c0 .8.6 1 1.2 1 .7 0 1.2-.2 1.3-.7v-.6c-.2-.7-1.5-1-1.6-1.3V11c0-.1.1-.2.3-.2.2 0 .3 0 .3.3v.2h.9V11c0-.7-.7-.8-1.2-.8-.6 0-1 .2-1.2.7v.5c.2.7 1.4.9 1.6 1.3m11.1 0v.3c0 .1 0 .2-.3.2-.2 0-.3-.1-.3-.3v-.3h-1v.2c0 .8.6 1 1.3 1 .6 0 1.1-.2 1.2-.8v-.5c-.1-.7-1.4-1-1.5-1.3V11c0-.1 0-.2.3-.2.2 0 .3 0 .3.3v.2h.8V11c0-.7-.6-.8-1.1-.8-.6 0-1.1.2-1.2.7v.5c.2.7 1.4.9 1.5 1.3m3 .5c.2 0 .2-.2.3-.3v-2.6h.8V13c0 .6-.5.8-1.2.8-.6 0-1.1-.2-1.2-.8v-2.7h.9v2.6c0 .1 0 .3.3.3m7.2 0c.2 0 .3-.2.3-.3v-.6h-.3v-.5H24v1.1c0 .7-.6.9-1.2.9s-1.2-.2-1.2-.9V11c0-.6.6-.8 1.2-.8s1.1.2 1.2.8v.3h-.9V11s0-.2-.3-.2-.3.2-.4.2v2c0 .1.1.3.4.3"/></svg>