<svg xmlns="http://www.w3.org/2000/svg" fill="#fff" viewBox="0 0 24 24"><path d="M11.94 0A12 12 0 0 0 0 12a12 12 0 0 0 12 12 12 12 0 0 0 12-12A12 12 0 0 0 12 0a12 12 0 0 0-.06 0zm4.97 7.22c.1 0 .32.03.46.14a.5.5 0 0 1 .17.33c.02.1.04.3.02.47-.18 1.9-.96 6.5-1.36 8.63-.17.9-.5 1.2-.82 1.23-.7.06-1.22-.46-1.9-.9-1.05-.7-1.65-1.13-2.68-1.8-1.18-.78-.41-1.21.26-1.91.18-.19 3.25-2.98 3.3-3.23.02-.04.02-.15-.05-.22s-.17-.04-.25-.02c-.1.02-1.79 1.14-5.06 3.35-.48.33-.91.49-1.3.48a8.5 8.5 0 0 1-1.86-.44c-.76-.25-1.35-.38-1.3-.8.03-.21.32-.43.9-.66a556.4 556.4 0 0 1 6.99-3.01c3.33-1.39 4.03-1.63 4.48-1.64z"/></svg>