<svg xmlns="http://www.w3.org/2000/svg" fill="#88DF95" viewBox="0 0 689 90"><path d="M133.2935 30.9556h5.9555q-2.4 9.0666-5.6889 17.4222-3.2444 8.311-6.311 14.9333h-5.2q-3.0667-6.6222-6.3112-14.9333-3.2889-8.3556-5.7333-17.4222h6.2222q.7556 3.0222 1.7778 6.4888 1.0222 3.4667 2.1778 6.8445 1.1555 3.3778 2.3555 6.5778 1.1556 3.1555 2.2222 5.6444 1.0667-2.4889 2.2667-5.6444 1.1556-3.2 2.3111-6.5778 1.1556-3.3778 2.1778-6.8445 1.0222-3.4666 1.7778-6.4888zm10.1333 16.2222q0-4.2667 1.2445-7.4667 1.2444-3.2444 3.2888-5.3333 2.089-2.1334 4.7556-3.2 2.6667-1.0222 5.4667-1.0222 6.5333 0 10 4.0444 3.511 4.0889 3.511 12.4444v.9334q0 .6222-.0888 1.111h-22.1333q.3555 5.0223 2.9333 7.6445 2.5333 2.6223 7.9555 2.6223 3.0667 0 5.1556-.5334 2.0444-.5333 3.1111-1.0222l.8 4.8444q-1.0222.5778-3.6889 1.2-2.6222.6223-6 .6223-4.2222 0-7.2889-1.289-3.111-1.2888-5.111-3.511-1.9556-2.2667-2.9334-5.3334-.9778-3.0666-.9778-6.7555zm6.1778-3.1556h16.0444q.0445-3.911-1.9555-6.4444-2.0445-2.5334-5.5556-2.5334-2 0-3.511.8-1.5556.7556-2.6223 2-1.0222 1.2445-1.6445 2.889-.5777 1.6-.7555 3.2888zM191.96 30.2444q.7556 0 1.7334.089l1.8666.2666q.9334.1778 1.7334.3111.7555.1778 1.1555.2667l-1.0222 5.0666q-.6667-.2666-2.2667-.5777-1.5555-.3556-4.0444-.3556-1.6444 0-3.2.3556-1.6.311-2.0889.4444v27.2h-5.8222V32.3333q2.0889-.7555 5.1111-1.4222 3.0667-.6667 6.8444-.6667zm32.3556 31.2v-1.3777q-.7556.4889-2.8889 1.2889-2.1333.7555-5.0222.7555-2.8889 0-5.4667-.9333-2.6222-.9334-4.5333-2.889-1.9111-1.9555-3.0667-4.8888-1.111-2.9333-1.111-6.9778 0-3.511 1.0666-6.4889Q204.36 37 206.36 34.8223q2.0445-2.1334 4.9778-3.3334 2.889-1.2445 6.5778-1.2445 4.0444 0 7.0667.6223 3.0222.5777 5.0666 1.0666v28.889q0 7.4666-3.8666 10.8Q222.3157 75 214.4934 75q-3.0666 0-5.7333-.4889-2.711-.4889-4.711-1.2l1.0666-5.0222q1.7333.6667 4.2667 1.2 2.4889.5333 5.2444.5333 5.1556 0 7.4222-2.0444 2.2667-2.0445 2.2667-6.5334zm-.0444-6.4888v-18.889q-.889-.2666-2.3556-.4888-1.4667-.2222-3.9556-.2222-4.6666 0-7.1555 3.0666-2.5333 3.0222-2.5333 8.089 0 2.8.711 4.8.7112 1.9555 1.9556 3.2888 1.2 1.2889 2.8 1.9111 1.5556.6222 3.2445.6222 2.311 0 4.2222-.6222 1.9555-.6667 3.0667-1.5555zm21.511-24V63.311h-5.7777V30.9556h5.7778zm-2.9333-5.8667q-1.5555 0-2.6222-1.0222-1.1111-1.0223-1.1111-2.7556 0-1.7333 1.1111-2.8 1.0667-1.0222 2.6222-1.0222 1.5556 0 2.6667 1.0222 1.0667 1.0667 1.0667 2.8 0 1.7333-1.0667 2.7556-1.1111 1.0222-2.6667 1.0222zm18.6667 38.2222h-5.7778V16.0222L261.5157 15v16.5778q1.6444-.6222 3.4667-.9778 1.8222-.3556 3.6444-.3556 3.8667 0 6.4 1.1112 2.5778 1.0666 4.0889 3.0222 1.5111 2 2.1333 4.711.6223 2.7556.6223 6.0445v18.1778h-5.7778V46.3778q0-2.9778-.4-5.1111-.4-2.089-1.3334-3.4223-.9333-1.2888-2.4888-1.911-1.5556-.5778-3.8667-.5778-.9333 0-1.9111.1333-1.0222.1333-1.9111.2667-.889.1777-1.6.3555-.7556.1778-1.0667.3111v26.889zm27.9556-16.1333q0-4.2667 1.2444-7.4667 1.2444-3.2444 3.2889-5.3333 2.0444-2.1334 4.7555-3.2 2.6667-1.0222 5.4667-1.0222 6.5333 0 10 4.0444 3.5111 4.0889 3.5111 12.4444v.9334q0 .6222-.0889 1.111h-22.1333q.3556 5.0223 2.9333 7.6445 2.5334 2.6223 7.9556 2.6223 3.0222 0 5.1111-.5334 2.0889-.5333 3.1556-1.0222l.8 4.8444q-1.0667.5778-3.689 1.2-2.6666.6223-6 .6223-4.2222 0-7.3333-1.289-3.0666-1.2888-5.0666-3.511-2-2.2667-2.9334-5.3334-.9777-3.0666-.9777-6.7555zm6.1777-3.1556h16.0445q.0444-3.911-1.9556-6.4444-2.0444-2.5334-5.6-2.5334-1.9555 0-3.511.8-1.5112.7556-2.5779 2-1.0666 1.2445-1.6444 2.889-.5778 1.6-.7556 3.2888zm37.9556 15.1111q3.5111 0 5.2444-.9333 1.689-.9333 1.689-2.9778 0-2.1333-1.6445-3.3778-1.689-1.2444-5.5556-2.8-1.8666-.7555-3.5555-1.511-1.7334-.8-2.9778-1.8223-1.2445-1.0667-2-2.5778-.7556-1.4666-.7556-3.6444 0-4.3111 3.2-6.8445 3.1556-2.4888 8.6223-2.4888 1.3777 0 2.7555.1333 1.3778.1778 2.5333.4 1.2.1778 2.089.4444.9333.2667 1.4222.4445l-1.0667 4.9778q-.9333-.489-2.9333-1.0223t-4.8-.5333q-2.4 0-4.2223.9333-1.7777.9778-1.7777 3.0223 0 1.0666.4 1.8666.4.8445 1.2444 1.4667.8444.6667 2.0889 1.2444 1.2444.5334 2.9778 1.1556 2.311.8889 4.0889 1.7333 1.8222.8445 3.111 1.9556 1.2445 1.111 1.9556 2.711.6667 1.5556.6667 3.8668 0 4.4888-3.3333 6.8-3.3334 2.311-9.4667 2.311-4.3111 0-6.7556-.7555-2.4-.7111-3.2889-1.0667l1.0667-4.9777q.9778.3555 3.1556 1.111 2.1777.7556 5.8222.7556zm31.1555 0q2.0445 0 3.6445-.0889 1.6-.0888 2.6222-.3555v-9.6445q-.6222-.311-2-.5333-1.4222-.2222-3.3778-.2222-1.3333 0-2.8.2222-1.4666.1778-2.6666.7556-1.2.5777-2 1.6-.8445 1.0666-.8445 2.711 0 3.1112 2 4.3556 2 1.2 5.4222 1.2zm-.4888-28.9777q3.4666 0 5.8666.8888 2.4.889 3.8667 2.5334 1.4667 1.6444 2.0889 3.9555.6222 2.2667.6222 4.9778v20.2222q-.7556.1334-2.0889.3556-1.3333.2222-3.0222.4-1.6889.1778-3.6445.3555-1.9555.1334-3.8666.1334-2.7556 0-5.0667-.5334-2.3111-.5777-3.9555-1.7777-1.689-1.2445-2.6223-3.2-.9333-2-.9333-4.8 0-2.6667 1.0667-4.6223 1.111-1.911 2.9777-3.111 1.8667-1.1556 4.3556-1.7334 2.4889-.5778 5.2-.5778.8889 0 1.8222.089.9334.1332 1.7778.2666.8444.1778 1.4667.2666.6222.1334.8444.2223v-1.6445q0-1.4222-.3111-2.8444-.3111-1.3778-1.1111-2.4445-.8-1.111-2.1778-1.7777-1.4222-.6223-3.6444-.6223-2.889 0-5.0223.4-2.1333.4-3.2.8445l-.711-4.8q1.1555-.489 3.7333-.9778 2.6222-.4444 5.6889-.4444zM408.76 47.1778q0-5.6445-2.8-8.7111-2.8-3.0223-7.4666-3.0223-2.6222 0-4.089.1778-1.4666.1778-2.311.4445v20.4q1.0222.8444 3.0222 1.6889 2 .8 4.3556.8 2.4888 0 4.2666-.889 1.7778-.9333 2.889-2.5333 1.111-1.5555 1.6444-3.7333.4888-2.1333.4888-4.6222zm6.0445 0q0 3.6889-.9778 6.8-.9778 3.111-2.8444 5.3333-1.8667 2.2667-4.5778 3.5111-2.7111 1.2445-6.1778 1.2445-2.8 0-4.9333-.7556-2.1778-.7555-3.2-1.4222v12.9333h-5.8222V31.9333q2.0888-.4889 5.1555-1.0666 3.0667-.6223 7.1111-.6223 3.7334 0 6.7111 1.2 3.0223 1.2 5.1111 3.3778 2.1334 2.1778 3.289 5.289 1.1555 3.1555 1.1555 7.0666zm18.6667 11.911l-.8445 4.8445q-5.3333-.1333-7.5555-2.311-2.2667-2.1779-2.2667-6.8v-38.8L428.5824 15v38.8889q0 1.4667.2666 2.4.2667.9333.8 1.4667.5778.5777 1.5111.8444.9334.2667 2.3112.4889zm17.4222.0445q2.0444 0 3.6444-.0889 1.5556-.0888 2.6222-.3555v-9.6445q-.6222-.311-2-.5333-1.4222-.2222-3.4222-.2222-1.2889 0-2.7555.2222-1.4667.1778-2.6667.7556-1.2444.5777-2.0444 1.6-.8 1.0666-.8 2.711 0 3.1112 2 4.3556 2 1.2 5.4222 1.2zm-.5334-28.9777q3.5112 0 5.9112.8888 2.4.889 3.8666 2.5334 1.4222 1.6444 2.0445 3.9555.6222 2.2667.6222 4.9778v20.2222q-.7111.1334-2.0445.3556-1.3777.2222-3.0222.4-1.6889.1778-3.6444.3555-1.9556.1334-3.9111.1334-2.7111 0-5.0223-.5334-2.311-.5777-4-1.7777-1.6888-1.2445-2.6222-3.2-.9333-2-.9333-4.8 0-2.6667 1.1111-4.6223 1.0667-1.911 2.9333-3.111 1.8667-1.1556 4.3556-1.7334 2.4889-.5778 5.2444-.5778.889 0 1.8223.089.9333.1332 1.7777.2666.8.1778 1.4223.2666.6222.1334.8888.2223v-1.6445q0-1.4222-.311-2.8444-.3112-1.3778-1.1112-2.4445-.8-1.111-2.2222-1.7777-1.3778-.6223-3.6444-.6223-2.8445 0-4.9778.4-2.1778.4-3.2445.8445l-.6666-4.8q1.111-.489 3.7333-.9778 2.6222-.4444 5.6444-.4444zm17.2 43.8666l1.0667-4.6666q.6667.311 1.7778.5777 1.0667.2667 2.1333.2667 3.4222 0 5.3334-1.5111 1.9555-1.5111 3.511-4.9333-3.9555-7.4667-7.3333-15.8667-3.3777-8.3556-5.6444-16.9333h6.2222q.7111 2.8 1.6889 6.0444.9333 3.2 2.1333 6.6222 1.1556 3.4222 2.5334 6.8445 1.3777 3.4222 2.8889 6.6222 2.3555-6.5333 4.0888-12.9333 1.7334-6.4445 3.289-13.2h6q-2.2667 9.1555-4.9778 17.5555-2.7556 8.4445-5.9112 15.7778-1.2444 2.8-2.5777 4.8444-1.3778 2-2.9778 3.3334-1.6 1.2889-3.6445 1.911-2 .6223-4.5777.6223-.6667 0-1.4223-.0889-.7555-.0889-1.4666-.2667-.7111-.1333-1.289-.311-.6221-.2223-.8444-.3112zm41.5556-43.0666V63.311h-5.7778V30.9556h5.7778zm-2.9333-5.8667q-1.5556 0-2.6223-1.0222-1.111-1.0223-1.111-2.7556 0-1.7333 1.111-2.8 1.0667-1.0222 2.6223-1.0222 1.5555 0 2.6666 1.0222 1.0667 1.0667 1.0667 2.8 0 1.7333-1.0667 2.7556-1.111 1.0222-2.6666 1.0222zm26.9333 38.9778q-3.9111 0-6.8444-1.2445-2.9778-1.2444-4.9778-3.511-2.0445-2.2223-3.0222-5.289-1.0223-3.111-1.0223-6.8444t1.1111-6.8445q1.0667-3.111 3.0667-5.3777 2-2.2667 4.8889-3.5556 2.8889-1.2444 6.4444-1.2444 2.1778 0 4.3556.3555 2.1778.3556 4.1778 1.2L539.96 36.6q-1.2888-.6222-2.9777-.9778-1.7334-.4-3.6445-.4-4.8889 0-7.4666 3.0667-2.5778 3.0667-2.5778 8.8889 0 2.6222.6222 4.8.5778 2.1778 1.8667 3.7333 1.2444 1.5556 3.2444 2.4 2 .8445 4.8445.8445 2.311 0 4.1777-.4445 1.8667-.4444 2.9334-.9333l.8 4.8444q-.489.3111-1.4223.5778-.9333.3111-2.1333.5333-1.1555.2223-2.4889.3556-1.3778.1778-2.6222.1778zm20.6667-33.1111V63.311h-5.7778V30.9556h5.7778zm-2.9334-5.8667q-1.5555 0-2.6222-1.0222-1.1111-1.0223-1.1111-2.7556 0-1.7333 1.1111-2.8 1.0667-1.0222 2.6222-1.0222 1.5556 0 2.6667 1.0222 1.0667 1.0667 1.0667 2.8 0 1.7333-1.0667 2.7556-1.1111 1.0222-2.6667 1.0222zm19.7334 34.8444q0 1.689-1.1111 2.9334-1.1112 1.2444-3.0667 1.2444-1.9111 0-3.0222-1.2444-1.1111-1.2445-1.1111-2.9334 0-1.6889 1.111-2.9333 1.1112-1.2444 3.0223-1.2444 1.9555 0 3.0667 1.2444 1.111 1.2444 1.111 2.9333zm22.5333 4.1334q-3.9111 0-6.8889-1.2445-2.9333-1.2444-4.9778-3.511-2-2.2223-3.0222-5.289-.9778-3.111-.9778-6.8444t1.1111-6.8445q1.0667-3.111 3.0667-5.3777 2-2.2667 4.8889-3.5556 2.8889-1.2444 6.4444-1.2444 2.1778 0 4.3556.3555 2.1778.3556 4.1333 1.2L599.9601 36.6q-1.2888-.6222-3.0222-.9778-1.6889-.4-3.6444-.4-4.8445 0-7.4222 3.0667-2.5778 3.0667-2.5778 8.8889 0 2.6222.5778 4.8.5777 2.1778 1.8666 3.7333 1.289 1.5556 3.289 2.4 1.9555.8445 4.8444.8445 2.311 0 4.1777-.4445 1.8667-.4444 2.889-.9333l.8444 4.8444q-.5334.3111-1.4667.5778-.9333.3111-2.0889.5333-1.2.2223-2.5333.3556-1.3334.1778-2.5778.1778zm43.4222-16.9334q0 3.8667-1.111 6.9778-1.1112 3.1111-3.1556 5.3333-2 2.2223-4.8 3.4667-2.8 1.2-6.089 1.2-3.3333 0-6.1333-1.2-2.8-1.2444-4.8-3.4667-2.0444-2.2222-3.1555-5.3333-1.1111-3.1111-1.1111-6.9778 0-3.8222 1.111-6.9333 1.1112-3.1556 3.1556-5.3778 2-2.2666 4.8-3.4666 2.8-1.2 6.1334-1.2 3.2889 0 6.0889 1.2t4.8 3.4666q2.0444 2.2222 3.1555 5.3778 1.1111 3.1111 1.1111 6.9333zm-6.0444 0q0-5.4666-2.4445-8.6666-2.4444-3.2445-6.6666-3.2445-4.2667 0-6.7111 3.2445-2.4445 3.2-2.4445 8.6666 0 5.4667 2.4445 8.6667 2.4444 3.2 6.711 3.2 4.2223 0 6.6667-3.2 2.4445-3.2 2.4445-8.6667zm14.2222 16.1778V31.889q1.9556-.4889 5.2444-1.0667 3.2445-.5778 7.5556-.5778 3.1111 0 5.2444.8445 2.089.8444 3.5112 2.4889.4444-.3111 1.3777-.889.9334-.5777 2.3111-1.0666 1.3778-.5333 3.0667-.9333 1.6445-.4445 3.6-.4445 3.7333 0 6.0889 1.1112 2.3556 1.0666 3.6889 3.0666t1.8222 4.7556q.4445 2.711.4445 5.9555v18.1778h-5.7778V46.3778q0-2.8445-.2667-4.9334-.2667-2.0444-1.0667-3.4222-.7555-1.3333-2.0888-2-1.3778-.6666-3.4667-.6666-2.9333 0-4.8445.8-1.8666.7555-2.5777 1.3777.4889 1.6445.7555 3.5556.2667 1.9111.2667 4.0444v18.1778h-5.8222V46.3778q0-2.8445-.3111-4.9334-.3112-2.0444-1.0667-3.4222-.8-1.3333-2.1333-2-1.3334-.6666-3.3778-.6666-.889 0-1.8667.0888-.9778.0445-1.9111.1334-.8889.0889-1.6444.2222-.7556.1333-.9778.1778V63.311h-5.7778zM88.8826 39.3582c2.36-4.222 1.463-7.5682-2.6921-10.0433-4.1561-2.474-6.2692-6.1282-6.3322-10.9683-.062-4.8342-2.5161-7.2853-7.3523-7.3513-4.8371-.063-8.4952-2.175-10.9733-6.3332C59.0687.507 55.7135-.391 51.4944 1.9711c-4.2212 2.362-8.4423 2.364-12.6624 0C34.6098-.392 31.2617.507 28.7906 4.662c-2.475 4.1572-6.1302 6.2692-10.9683 6.3332-4.8382.064-7.2873 2.5161-7.3543 7.3513-.064 4.8381-2.174 8.4942-6.3302 10.9683-4.157 2.4761-5.0561 5.8222-2.692 10.0433 2.366 4.2192 2.366 8.4423 0 12.6635-2.3641 4.218-1.465 7.5672 2.692 10.0403 4.1562 2.474 6.2652 6.1292 6.3302 10.9643.064 4.8382 2.5151 7.2933 7.3543 7.3573 4.8371.061 8.4933 2.173 10.9683 6.3282 2.4711 4.1571 5.8192 5.0521 10.0414 2.692 4.2201-2.363 8.4412-2.363 12.6624 0 4.2191 2.3591 7.5722 1.4651 10.0383-2.692 2.478-4.1552 6.1362-6.2682 10.9733-6.3282 4.8362-.064 7.2903-2.5201 7.3523-7.3573.063-4.8351 2.176-8.4902 6.3322-10.9643 4.1551-2.4731 5.0532-5.8222 2.692-10.0403-2.367-4.2212-2.367-8.4443 0-12.6635zm-67.6552-5.3101a8.4353 8.4353 0 018.4423-8.4453 8.4413 8.4413 0 018.4502 8.4453c0 4.6661-3.782 8.4413-8.4502 8.4413a8.4383 8.4383 0 01-8.4423-8.4413zm10.3183 37.1302a2.59 2.59 0 01-2.18 1.18c-.5 0-.99-.137-1.438-.426a2.615 2.615 0 01-.7481-3.6171l31.589-48.1126a2.603 2.603 0 013.6171-.758 2.615 2.615 0 01.748 3.6181l-31.588 48.1156zm29.1-5.4002a8.4503 8.4503 0 010-16.8975 8.4533 8.4533 0 018.4522 8.4522c.001 4.6632-3.788 8.4453-8.4522 8.4453z"/></svg>