<svg xmlns="http://www.w3.org/2000/svg" fill="#88df95" viewBox="0 0 27.863 27.861"><path d="M27.4656 11.9715c.7306-1.307.453-2.343-.8334-3.1092-1.2866-.7659-1.9408-1.897-1.9603-3.3954-.0192-1.4965-.7789-2.2553-2.276-2.2757-1.4974-.0196-2.6299-.6734-3.397-1.9606-.7628-1.2863-1.8015-1.5643-3.1076-.8331-1.3067.7312-2.6135.7318-3.9199 0-1.307-.7315-2.3435-.4532-3.1085.833-.7662 1.287-1.8977 1.9408-3.3954 1.9607s-2.256.7789-2.2767 2.2757c-.0198 1.4977-.673 2.6295-1.9596 3.3954-1.287.7666-1.5653 1.8024-.8334 3.1092.7324 1.306.7324 2.6134 0 3.9202-.7319 1.3058-.4536 2.3426.8334 3.1082 1.2866.7659 1.9395 1.8974 1.9596 3.3942.0198 1.4977.7786 2.2578 2.2767 2.2776 1.4974.0189 2.6292.6727 3.3954 1.959.765 1.287 1.8015 1.564 3.1085.8334 1.3064-.7316 2.6132-.7316 3.92 0 1.306.7303 2.344.4535 3.1075-.8334.7671-1.2863 1.8996-1.9405 3.397-1.959 1.4971-.0198 2.2568-.7802 2.276-2.2776.0195-1.4968.6737-2.6283 1.9603-3.3942 1.2863-.7656 1.5643-1.8024.8334-3.1082-.7328-1.3068-.7328-2.6141 0-3.9202zm-20.944-1.644A2.6113 2.6113 0 019.135 7.7133a2.6132 2.6132 0 012.616 2.6144c0 1.4445-1.1708 2.6132-2.616 2.6132a2.6122 2.6122 0 01-2.6134-2.6132zM9.7158 21.822a.8018.8018 0 01-.6749.3653.812.812 0 01-.4451-.1319.8096.8096 0 01-.2316-1.1197l9.779-14.8942a.8058.8058 0 011.1198-.2347.8096.8096 0 01.2315 1.12zm9.0085-1.6717a2.616 2.616 0 010-5.231 2.6169 2.6169 0 012.6166 2.6166c.0003 1.4435-1.1727 2.6144-2.6166 2.6144z"/></svg>